<svg width="208" height="49" viewBox="0 0 208 49" fill="none" xmlns="http://www.w3.org/2000/svg">
<path d="M11.582 31.7822C11.4648 31.7822 11.2832 31.7646 11.0371 31.7295C10.8496 31.5303 10.6797 31.2607 10.5273 30.9209C10.3867 30.5693 10.2754 30.2002 10.1934 29.8135C10.123 29.415 10.0879 29.0225 10.0879 28.6357C10.0996 28.2373 10.1699 27.8857 10.2988 27.5811C10.2988 27.5693 10.3516 27.4287 10.457 27.1592C10.5742 26.8896 10.7207 26.5498 10.8965 26.1396C11.0723 25.7178 11.2715 25.2549 11.4941 24.751C11.7168 24.2354 11.9395 23.7314 12.1621 23.2393C12.3848 22.7471 12.5957 22.3018 12.7949 21.9033C13.0059 21.4932 13.1875 21.1768 13.3398 20.9541C13.4453 20.79 13.5391 20.6318 13.6211 20.4795C13.7148 20.3271 13.8027 20.1865 13.8848 20.0576C14.0137 19.8467 14.1309 19.6533 14.2363 19.4775C14.3535 19.29 14.4766 19.126 14.6055 18.9854C14.7461 18.833 14.8984 18.7041 15.0625 18.5986C15.2266 18.4814 15.4258 18.3818 15.6602 18.2998C15.8008 18.3584 15.9238 18.4229 16.0293 18.4932C16.1348 18.5518 16.2285 18.6279 16.3105 18.7217L16.3633 18.9678C16.3867 19.0498 16.4219 19.1084 16.4688 19.1436C16.5273 19.167 16.5742 19.1787 16.6094 19.1787C16.7617 19.2139 16.8906 19.2549 16.9961 19.3018C17.1133 19.3369 17.2363 19.3604 17.3652 19.3721C17.4121 19.4424 17.4531 19.5127 17.4883 19.583C17.5352 19.6533 17.582 19.7178 17.6289 19.7764C17.8633 20.1162 18.0566 20.4443 18.209 20.7607C18.3613 21.0771 18.3613 21.4229 18.209 21.7979L18.2266 21.9912C18.2852 22.0732 18.3145 22.1494 18.3145 22.2197C18.3145 22.29 18.3027 22.3896 18.2793 22.5186C18.2676 22.6123 18.2559 22.7178 18.2441 22.835C18.2441 22.9404 18.2617 23.0576 18.2969 23.1865L18.4199 23.3271C18.6074 23.4209 18.7891 23.4678 18.9648 23.4678C19.1992 23.4678 19.4102 23.415 19.5977 23.3096C19.7852 23.2041 19.9609 23.0986 20.125 22.9932C20.2539 22.8994 20.3711 22.8232 20.4766 22.7646C20.5938 22.7061 20.7051 22.665 20.8105 22.6416C21.0566 22.4072 21.2793 22.2021 21.4785 22.0264C21.6895 21.8389 21.9062 21.6514 22.1289 21.4639C22.5508 21.124 22.9609 20.7607 23.3594 20.374C23.7578 19.9756 24.0742 19.4834 24.3086 18.8975C24.4375 18.8154 24.584 18.7744 24.748 18.7744C24.9121 18.7744 25.0762 18.8096 25.2402 18.8799C25.4043 18.9385 25.5684 19.0088 25.7324 19.0908C25.7676 19.1143 25.7969 19.1318 25.8203 19.1436C25.8555 19.1553 25.8906 19.1729 25.9258 19.1963C25.9258 19.3252 25.9785 19.4424 26.084 19.5479C26.1426 19.5947 26.1836 19.624 26.207 19.6357C26.2305 19.6475 26.2539 19.6592 26.2773 19.6709C26.3711 19.7295 26.4473 19.7822 26.5059 19.8291C26.5762 19.876 26.6289 19.9404 26.6641 20.0225C26.7695 20.3389 26.9453 20.585 27.1914 20.7607C27.168 20.8896 27.1738 21.0186 27.209 21.1475C27.2441 21.2646 27.2852 21.3818 27.332 21.499C27.3555 21.5459 27.373 21.5928 27.3848 21.6396C27.3965 21.6748 27.4141 21.7217 27.4375 21.7803L27.0508 21.7451L27.1035 22.1318C27.1387 22.3311 27.1211 22.5537 27.0508 22.7998C26.9922 23.0459 26.9219 23.2393 26.8398 23.3799C26.8633 23.7314 26.875 24.0127 26.875 24.2236C26.875 24.4229 26.8633 24.6104 26.8398 24.7861C26.8164 24.9619 26.7754 25.1318 26.7168 25.2959C26.6699 25.4482 26.6055 25.6123 26.5234 25.7881C26.5703 26.6787 26.4648 27.4932 26.207 28.2314C25.9609 28.9697 25.6914 29.6611 25.3984 30.3057C25.3633 30.3877 25.3281 30.4639 25.293 30.5342C25.2578 30.6045 25.2285 30.6748 25.2051 30.7451C25.0762 30.7803 24.959 30.8213 24.8535 30.8682C24.748 30.915 24.6484 30.9678 24.5547 31.0264C24.4258 31.1084 24.2969 31.1787 24.168 31.2373C24.0391 31.2842 23.9043 31.3076 23.7637 31.3076C23.2012 30.8975 22.9082 30.1885 22.8848 29.1807C22.873 28.1729 23.0898 26.8896 23.5352 25.3311C23.6172 25.2725 23.6523 25.1846 23.6406 25.0674V24.874L23.4648 24.8564C23.4062 24.8564 23.3535 24.8623 23.3066 24.874C23.2598 24.8857 23.2246 24.9385 23.2012 25.0322C22.8262 25.3018 22.416 25.583 21.9707 25.876C21.5371 26.1572 21.0859 26.4209 20.6172 26.667C20.1484 26.9014 19.668 27.1006 19.1758 27.2646C18.6953 27.417 18.2266 27.4932 17.7695 27.4932C16.5977 27.4932 15.7129 26.8955 15.1152 25.7002L14.957 25.3838L14.7812 25.665C14.7461 25.7236 14.6816 25.8408 14.5879 26.0166C14.5059 26.1807 14.418 26.374 14.3242 26.5967C14.2422 26.8193 14.166 27.0479 14.0957 27.2822C14.0371 27.5166 14.0195 27.7217 14.043 27.8975C13.9023 28.0264 13.7617 28.1729 13.6211 28.3369C13.4922 28.501 13.3984 28.6885 13.3398 28.8994C13.3164 28.958 13.3105 29.0166 13.3223 29.0752C13.334 29.1221 13.3516 29.1748 13.375 29.2334C13.3633 29.3154 13.3398 29.374 13.3047 29.4092C13.2695 29.4443 13.2285 29.4795 13.1816 29.5146C13.123 29.5732 13.0645 29.6377 13.0059 29.708C12.9473 29.7666 12.8945 29.8369 12.8477 29.9189C12.8242 29.9893 12.8066 30.0654 12.7949 30.1475C12.7832 30.2178 12.7715 30.2822 12.7598 30.3408C12.7598 30.4697 12.7422 30.5576 12.707 30.6045C12.5898 30.8506 12.4844 31.0557 12.3906 31.2197C12.3086 31.3721 12.2266 31.4893 12.1445 31.5713C12.0625 31.6533 11.9746 31.7061 11.8809 31.7295C11.7988 31.7646 11.6992 31.7822 11.582 31.7822ZM36.8242 30.0596C36.7539 30.2588 36.6484 30.4639 36.5078 30.6748C36.3789 30.874 36.2207 31.0557 36.0332 31.2197C35.8574 31.3721 35.6582 31.501 35.4355 31.6064C35.2129 31.7119 34.9785 31.7705 34.7324 31.7822C34.5801 31.7471 34.4746 31.7061 34.416 31.6592C34.3691 31.624 34.3164 31.5889 34.2578 31.5537C34.2227 31.5303 34.1875 31.5127 34.1523 31.501C34.1289 31.4775 34.1055 31.46 34.082 31.4482L33.8711 31.3604L33.9414 31.1318C33.9648 31.0381 33.959 30.9678 33.9238 30.9209C33.8887 30.8623 33.8184 30.7861 33.7129 30.6924C33.6777 30.6572 33.6426 30.6221 33.6074 30.5869C33.5723 30.5518 33.543 30.5166 33.5195 30.4814L33.2207 30.1475L33.6953 30.0244C33.9883 29.9424 34.1816 29.8369 34.2754 29.708C34.3809 29.5791 34.4219 29.3623 34.3984 29.0576C34.1641 29.0107 33.9648 29.0049 33.8008 29.04C33.6484 29.0752 33.4902 29.1162 33.3262 29.1631C33.1152 29.2217 32.8984 29.2744 32.6758 29.3213C32.4648 29.3564 32.2305 29.374 31.9727 29.374C31.8789 29.374 31.791 29.374 31.709 29.374C31.627 29.3623 31.5391 29.3506 31.4453 29.3389L31.2695 29.3037C31.2461 29.1748 31.2227 29.1045 31.1992 29.0928C31.1758 29.0693 31.1523 29.0459 31.1289 29.0225C31.0703 28.9639 31.0059 28.8877 30.9355 28.7939C30.877 28.6885 30.8652 28.5596 30.9004 28.4072C30.8418 28.3018 30.8066 28.1963 30.7949 28.0908C30.7246 28.2314 30.6719 28.3779 30.6367 28.5303L30.5664 28.7061L30.3906 28.7412C30.3672 28.7529 30.3496 28.7822 30.3379 28.8291C30.3262 28.8643 30.3203 28.8936 30.3203 28.917L30.2324 29.2158C30.209 29.2393 30.1855 29.2627 30.1621 29.2861C30.1387 29.2979 30.1152 29.3154 30.0918 29.3389C30.0684 29.4443 30.0391 29.5498 30.0039 29.6553C29.9688 29.7607 29.9336 29.8604 29.8984 29.9541C29.8398 30.1064 29.7871 30.2588 29.7402 30.4111C29.7051 30.5518 29.6934 30.6924 29.7051 30.833L29.6348 31.0264C29.5762 31.0967 29.5117 31.1553 29.4414 31.2021C29.3711 31.2373 29.3008 31.2725 29.2305 31.3076C29.207 31.3311 29.1719 31.3545 29.125 31.3779C29.0898 31.3896 29.0605 31.4014 29.0371 31.4131L28.9844 31.6064L28.7734 31.6416C28.6445 31.665 28.5508 31.6826 28.4922 31.6943C28.4453 31.7061 28.3867 31.7119 28.3164 31.7119L28.1406 31.6943C28.0117 31.5889 27.9121 31.5068 27.8418 31.4482C27.7715 31.3779 27.6895 31.3135 27.5957 31.2549C27.4902 31.1143 27.4316 31.0088 27.4199 30.9385C27.4082 30.8682 27.3965 30.8037 27.3848 30.7451C27.3613 30.6748 27.3496 30.6162 27.3496 30.5693C27.3379 30.5225 27.3203 30.4873 27.2969 30.4639L27.0684 30.2529L27.2617 30.0947L27.2793 29.7959C27.5137 29.1982 27.7598 28.624 28.0176 28.0732C28.2871 27.5225 28.5625 26.96 28.8438 26.3857C28.9375 26.1982 29.0254 26.0107 29.1074 25.8232C29.2012 25.6357 29.2949 25.4482 29.3887 25.2607C29.377 25.2256 29.3711 25.1846 29.3711 25.1377C29.3711 25.0908 29.3828 25.0381 29.4062 24.9795C29.5352 24.7803 29.6406 24.6045 29.7227 24.4521C29.8047 24.2881 29.8867 24.124 29.9688 23.96C30.0625 23.7607 30.1562 23.5674 30.25 23.3799C30.3555 23.1924 30.4844 22.999 30.6367 22.7998L30.918 22.6768C30.9531 22.665 30.9941 22.6533 31.041 22.6416C31.0879 22.6182 31.1406 22.6064 31.1992 22.6064L31.4629 22.6416C31.791 22.4893 32.0781 22.2783 32.3242 22.0088C32.5703 21.7275 32.8223 21.3936 33.0801 21.0068L33.2559 20.7607L33.4844 20.9014C33.543 20.9365 33.625 20.9717 33.7305 21.0068C33.8359 21.0303 33.9473 21.0596 34.0645 21.0947C34.2754 21.1416 34.4746 21.1943 34.6621 21.2529C34.8496 21.3115 35.002 21.3994 35.1191 21.5166C35.1895 21.7041 35.2305 21.8447 35.2422 21.9385C35.2539 22.0322 35.2715 22.126 35.2949 22.2197C35.3301 22.4189 35.3594 22.6182 35.3828 22.8174C35.418 23.0166 35.4414 23.2393 35.4531 23.4854C35.5117 23.6846 35.5586 23.8838 35.5938 24.083C35.6406 24.2705 35.6816 24.4639 35.7168 24.6631C35.7754 24.9443 35.834 25.2197 35.8926 25.4893C35.9512 25.7471 36.0273 25.9932 36.1211 26.2275C36.2148 26.2275 36.2734 26.2334 36.2969 26.2451C36.3555 26.2217 36.4141 26.2041 36.4727 26.1924C36.543 26.1807 36.6191 26.1689 36.7012 26.1572L36.8945 26.1396L36.9648 26.3154C36.9766 26.374 37.0352 26.4326 37.1406 26.4912C37.293 26.5029 37.4043 26.5381 37.4746 26.5967C37.5449 26.6436 37.6094 26.6963 37.668 26.7549C37.7148 26.8018 37.7617 26.8369 37.8086 26.8604L38.0723 26.9658L37.9316 27.2295C37.8145 27.4404 37.6445 27.6455 37.4219 27.8447C37.2109 28.0322 36.9707 28.1904 36.7012 28.3193C36.7129 28.3896 36.7188 28.46 36.7188 28.5303C36.7305 28.5889 36.748 28.6533 36.7715 28.7236C36.8066 28.9229 36.8359 29.1279 36.8594 29.3389C36.8828 29.5498 36.8828 29.7666 36.8594 29.9893L36.8242 30.0596ZM31.7441 27.0186C32.0957 26.9951 32.4121 26.9717 32.6934 26.9482C32.9863 26.9131 33.3086 26.8604 33.6602 26.79C33.5781 26.4385 33.4902 26.0752 33.3965 25.7002C33.3027 25.3135 33.2031 24.9326 33.0977 24.5576L32.9922 24.7334C32.7578 24.9795 32.5293 25.2549 32.3066 25.5596C32.0957 25.8643 31.9141 26.1514 31.7617 26.4209C31.6914 26.5264 31.6211 26.6318 31.5508 26.7373C31.4805 26.8428 31.416 26.9482 31.3574 27.0537C31.4277 27.042 31.4922 27.0361 31.5508 27.0361C31.6211 27.0361 31.6855 27.0303 31.7441 27.0186ZM45.2969 31.5713C45.1094 31.583 44.875 31.5771 44.5938 31.5537C44.3242 31.5303 44.0723 31.5713 43.8379 31.6768C43.2168 31.6533 42.584 31.5771 41.9395 31.4482C41.2949 31.3193 40.7031 31.1611 40.1641 30.9736C40.0469 30.8447 39.9297 30.7275 39.8125 30.6221C39.6953 30.5049 39.5371 30.4229 39.3379 30.376C39.0566 30.1533 38.8281 29.8838 38.6523 29.5674C38.4766 29.2393 38.3359 28.8936 38.2305 28.5303C38.125 28.167 38.0547 27.7979 38.0195 27.4229C37.9844 27.0361 37.9727 26.667 37.9844 26.3154C38.1602 25.7881 38.4062 25.3369 38.7227 24.9619C39.0508 24.5752 39.3848 24.1943 39.7246 23.8193C39.877 23.749 39.9883 23.6787 40.0586 23.6084C40.1406 23.5264 40.2227 23.4561 40.3047 23.3975C40.3984 23.3271 40.4863 23.2627 40.5684 23.2041C40.6621 23.1338 40.7441 23.0518 40.8145 22.958C41.0605 22.8994 41.2715 22.8174 41.4473 22.7119C41.6348 22.5947 41.8164 22.4775 41.9922 22.3604C42.168 22.2314 42.3496 22.1143 42.5371 22.0088C42.7246 21.9033 42.9414 21.8213 43.1875 21.7627C43.2812 21.6572 43.3926 21.5752 43.5215 21.5166C43.6504 21.4463 43.7793 21.3818 43.9082 21.3232C44.0488 21.2529 44.1777 21.1826 44.2949 21.1123C44.4238 21.042 44.5234 20.9482 44.5938 20.8311C44.6523 20.9248 44.7344 20.96 44.8398 20.9365C44.9453 20.9014 45.0449 20.8662 45.1387 20.8311C45.1973 20.8193 45.2441 20.8311 45.2793 20.8662C45.3262 20.9014 45.3672 20.9365 45.4023 20.9717C45.4375 21.0068 45.4668 21.0303 45.4902 21.042C45.5254 21.042 45.5547 21.0127 45.5781 20.9541C45.6367 20.9541 45.6543 20.9834 45.6309 21.042C45.6074 21.1006 45.5898 21.1416 45.5781 21.165C45.6719 21.1533 45.748 21.1768 45.8066 21.2354C45.877 21.2822 45.9824 21.3115 46.123 21.3232C46.1699 21.3818 46.1816 21.4287 46.1582 21.4639C46.1348 21.4873 46.123 21.5342 46.123 21.6045C46.4746 21.71 46.6973 21.8799 46.791 22.1143C46.8848 22.3369 46.8906 22.5713 46.8086 22.8174C46.7266 23.0635 46.5801 23.292 46.3691 23.5029C46.1582 23.7139 45.9297 23.8545 45.6836 23.9248C45.1211 24.0771 44.5879 24.2471 44.084 24.4346C43.5918 24.6104 43.1875 24.874 42.8711 25.2256C42.5898 25.3076 42.3379 25.4189 42.1152 25.5596C41.9043 25.6885 41.6992 25.8408 41.5 26.0166C41.3125 26.1807 41.1309 26.3564 40.9551 26.5439C40.791 26.7197 40.6152 26.8955 40.4277 27.0713C40.4395 27.2354 40.4102 27.3643 40.3398 27.458C40.2812 27.54 40.2227 27.6279 40.1641 27.7217C40.1875 27.8975 40.2285 28.0557 40.2871 28.1963C40.3457 28.3252 40.4102 28.4541 40.4805 28.583C41.2539 28.8174 42.0742 28.9639 42.9414 29.0225C43.8203 29.0811 44.6992 29.1162 45.5781 29.1279C45.6602 29.2451 45.7539 29.3564 45.8594 29.4619C45.9766 29.5557 46.082 29.6611 46.1758 29.7783C46.2695 29.8838 46.3457 30.0068 46.4043 30.1475C46.4629 30.2764 46.4746 30.4404 46.4395 30.6396C46.2754 30.8154 46.0938 30.9795 45.8945 31.1318C45.6953 31.2725 45.4961 31.4189 45.2969 31.5713ZM57.4785 26.2627C57.4668 26.4033 57.4785 26.5381 57.5137 26.667C57.5488 26.7959 57.5898 26.9248 57.6367 27.0537C57.6953 27.1709 57.748 27.2939 57.7949 27.4229C57.8418 27.5518 57.877 27.6807 57.9004 27.8096C57.9238 27.9736 57.9238 28.1553 57.9004 28.3545C57.877 28.542 57.8359 28.7295 57.7773 28.917C57.7188 29.0928 57.6426 29.2568 57.5488 29.4092C57.4551 29.5498 57.3438 29.6553 57.2148 29.7256C57.0508 29.9365 56.8516 30.1006 56.6172 30.2178C56.3828 30.335 56.166 30.4756 55.9668 30.6396C55.8379 30.7217 55.6914 30.7803 55.5273 30.8154C55.375 30.8506 55.2168 30.8857 55.0527 30.9209C54.9238 30.9912 54.7715 31.0674 54.5957 31.1494C54.4199 31.2197 54.2383 31.29 54.0508 31.3604C53.8633 31.4189 53.6758 31.4658 53.4883 31.501C53.3008 31.5244 53.1367 31.5303 52.9961 31.5186C52.6445 31.6475 52.2988 31.7295 51.959 31.7646C51.6309 31.8115 51.2441 31.7881 50.7988 31.6943C50.377 31.7529 49.9844 31.7354 49.6211 31.6416C49.2695 31.5479 48.9531 31.4014 48.6719 31.2021C48.4023 30.9912 48.1621 30.7451 47.9512 30.4639C47.752 30.1709 47.5879 29.8662 47.459 29.5498C47.3652 28.8818 47.3887 28.2783 47.5293 27.7393C47.6699 27.1885 47.8691 26.6846 48.127 26.2275C48.3965 25.7588 48.7012 25.3311 49.041 24.9443C49.3809 24.5459 49.709 24.1592 50.0254 23.7842C50.0957 23.8076 50.1484 23.8076 50.1836 23.7842C50.2305 23.749 50.2715 23.708 50.3066 23.6611C50.3418 23.6025 50.377 23.5498 50.4121 23.5029C50.459 23.4561 50.5117 23.4268 50.5703 23.415C50.6523 23.2393 50.7695 23.1104 50.9219 23.0283C51.0859 22.9346 51.2148 22.8057 51.3086 22.6416C51.4141 22.6182 51.502 22.583 51.5723 22.5361C51.6426 22.4893 51.707 22.4365 51.7656 22.3779C51.8359 22.3193 51.9062 22.2666 51.9766 22.2197C52.0469 22.1611 52.1289 22.1201 52.2227 22.0967V21.9033C52.4336 21.8096 52.5859 21.7041 52.6797 21.5869C52.7852 21.458 52.9082 21.3057 53.0488 21.1299C53.1543 21.1182 53.2363 21.1123 53.2949 21.1123C53.3652 21.1123 53.4648 21.1006 53.5938 21.0771C53.6875 20.9131 53.7695 20.79 53.8398 20.708C53.9219 20.626 54.0391 20.5381 54.1914 20.4443C54.332 20.5146 54.4844 20.5615 54.6484 20.585C54.8242 20.6084 54.9766 20.6846 55.1055 20.8135C55.1172 20.9307 55.1523 21.0244 55.2109 21.0947C55.2695 21.1533 55.334 21.2119 55.4043 21.2705C55.4746 21.3174 55.5391 21.3701 55.5977 21.4287C55.668 21.4873 55.7148 21.5693 55.7383 21.6748C55.7852 21.6865 55.8145 21.6807 55.8262 21.6572C55.8496 21.6338 55.8848 21.6279 55.9316 21.6396C55.9668 21.8037 56.0078 21.915 56.0547 21.9736C56.1016 22.0205 56.1484 22.1201 56.1953 22.2725C56.1367 22.3896 56.0898 22.5127 56.0547 22.6416C56.0312 22.7588 55.9609 22.8467 55.8438 22.9053C55.832 22.9873 55.8555 23.0342 55.9141 23.0459C55.9727 23.0459 56.0078 23.0752 56.0195 23.1338C56.0312 23.2393 56.0137 23.3154 55.9668 23.3623C56.248 23.8193 56.5 24.3057 56.7227 24.8213C56.9453 25.3252 57.1973 25.8057 57.4785 26.2627ZM55.2812 27.9326C55.3281 27.8037 55.3867 27.6982 55.457 27.6162C55.5391 27.5342 55.5859 27.4111 55.5977 27.2471C55.5391 27.1533 55.5039 27.083 55.4922 27.0361C55.4805 26.9775 55.4746 26.8896 55.4746 26.7725C55.2168 26.4092 54.9941 26.0225 54.8066 25.6123C54.6191 25.1904 54.4082 24.7979 54.1738 24.4346C54.1504 24.4814 54.1094 24.5283 54.0508 24.5752C53.9922 24.6221 53.9277 24.6104 53.8574 24.54C53.834 24.6338 53.793 24.7041 53.7344 24.751C53.6758 24.7861 53.6113 24.8037 53.541 24.8037C53.4707 24.792 53.3945 24.7744 53.3125 24.751C53.2422 24.7158 53.1777 24.6748 53.1191 24.6279C52.7793 24.8975 52.4395 25.1611 52.0996 25.4189C51.7598 25.6768 51.4551 25.9756 51.1855 26.3154C51.1387 26.3389 51.1094 26.3506 51.0977 26.3506C51.0859 26.3389 51.0508 26.3447 50.9922 26.3682C50.8984 26.5908 50.7812 26.7959 50.6406 26.9834C50.5117 27.1592 50.3828 27.3408 50.2539 27.5283C50.125 27.7158 50.0137 27.915 49.9199 28.126C49.8262 28.3369 49.7734 28.583 49.7617 28.8643C49.9609 29.0283 50.1953 29.1279 50.4648 29.1631C50.7344 29.1982 51.0098 29.2041 51.291 29.1807C51.584 29.1572 51.8652 29.1221 52.1348 29.0752C52.416 29.0166 52.6738 28.9873 52.9082 28.9873C53.4004 28.8701 53.8223 28.7178 54.1738 28.5303C54.5254 28.3311 54.8945 28.1318 55.2812 27.9326ZM62.1543 28.3369C62.0488 28.3604 61.9727 28.4248 61.9258 28.5303C61.8789 28.624 61.832 28.7236 61.7852 28.8291C61.75 28.9346 61.709 29.0342 61.6621 29.1279C61.627 29.21 61.5684 29.251 61.4863 29.251C61.4746 29.3447 61.4395 29.4268 61.3809 29.4971C61.334 29.5674 61.2871 29.6436 61.2402 29.7256C61.1934 29.7959 61.1582 29.8779 61.1348 29.9717C61.1113 30.0537 61.123 30.1533 61.1699 30.2705C61.0762 30.3408 61.0176 30.4404 60.9941 30.5693C60.9707 30.6982 60.9414 30.8213 60.9062 30.9385C60.8828 31.0557 60.8359 31.1553 60.7656 31.2373C60.6953 31.3193 60.5664 31.3545 60.3789 31.3428C60.3438 31.3896 60.3379 31.4189 60.3613 31.4307C60.3848 31.4424 60.4023 31.4834 60.4141 31.5537C60.2852 31.5303 60.1855 31.5361 60.1152 31.5713C60.0566 31.6182 59.9805 31.6475 59.8867 31.6592C59.6641 31.5889 59.4766 31.4658 59.3242 31.29C59.1836 31.1143 59.0547 30.9209 58.9375 30.71C58.832 30.4873 58.7324 30.2646 58.6387 30.042C58.5566 29.8193 58.4746 29.626 58.3926 29.4619C58.4277 29.333 58.4336 29.21 58.4102 29.0928C58.3867 28.9639 58.3457 28.8584 58.2871 28.7764C58.8613 27.5576 59.4883 26.2568 60.168 24.874C60.8477 23.4912 61.4922 22.126 62.1016 20.7783C62.3711 20.8838 62.6348 21.0068 62.8926 21.1475C63.1621 21.2764 63.4023 21.4287 63.6133 21.6045C63.8359 21.7803 64.0234 21.9854 64.1758 22.2197C64.3281 22.4424 64.4277 22.6943 64.4746 22.9756C64.4512 23.0459 64.4219 23.0752 64.3867 23.0635C64.3633 23.04 64.3398 23.0459 64.3164 23.0811C64.3633 23.1396 64.3867 23.1807 64.3867 23.2041C64.3984 23.2275 64.3984 23.251 64.3867 23.2744C64.3867 23.2979 64.3867 23.333 64.3867 23.3799C64.3867 23.415 64.4043 23.4678 64.4395 23.5381C64.3926 23.5264 64.3574 23.5322 64.334 23.5557C64.3223 23.5791 64.2871 23.5791 64.2285 23.5557C64.2754 23.6846 64.2871 23.79 64.2637 23.8721C64.252 23.9541 64.2285 24.0303 64.1934 24.1006C64.1582 24.1592 64.1289 24.2295 64.1055 24.3115C64.082 24.3818 64.0879 24.4756 64.123 24.5928C64.0879 24.5928 64.0586 24.6045 64.0352 24.6279C64.0234 24.6396 64.0117 24.6572 64 24.6807C63.9883 24.6924 63.9707 24.71 63.9473 24.7334C63.9355 24.7451 63.9121 24.7451 63.877 24.7334C63.9121 24.9912 63.9238 25.249 63.9121 25.5068C63.9004 25.7646 63.8887 26.0283 63.877 26.2979C63.877 26.5557 63.8828 26.8311 63.8945 27.124C63.9062 27.4053 63.9473 27.6982 64.0176 28.0029C64.4395 27.7568 64.7734 27.4404 65.0195 27.0537C65.2773 26.667 65.4824 26.2334 65.6348 25.7529C65.7988 25.2725 65.9219 24.7568 66.0039 24.2061C66.0859 23.6553 66.1738 23.0928 66.2676 22.5186C66.373 22.4131 66.4551 22.2842 66.5137 22.1318C66.5723 21.9795 66.625 21.8213 66.6719 21.6572C66.7188 21.4814 66.7656 21.3115 66.8125 21.1475C66.8594 20.9717 66.918 20.8135 66.9883 20.6729C67.1641 20.6963 67.3105 20.7549 67.4277 20.8486C67.5566 20.9307 67.6738 21.0244 67.7793 21.1299C67.8848 21.2236 67.9961 21.3174 68.1133 21.4111C68.2305 21.4932 68.377 21.5459 68.5527 21.5693C68.6934 21.7686 68.8223 21.9619 68.9395 22.1494C69.0566 22.3369 69.1328 22.5361 69.168 22.7471C69.1094 22.8408 69.0625 22.9463 69.0273 23.0635C69.0039 23.1807 68.9746 23.2979 68.9395 23.415C68.9043 23.5322 68.8574 23.6436 68.7988 23.749C68.7402 23.8428 68.6582 23.9248 68.5527 23.9951C68.5176 24.2998 68.4707 24.5811 68.4121 24.8389C68.3652 25.085 68.3125 25.3311 68.2539 25.5771C68.207 25.8232 68.166 26.0811 68.1309 26.3506C68.0957 26.6084 68.084 26.8955 68.0957 27.2119C68.002 27.4814 67.9023 27.7686 67.7969 28.0732C67.6914 28.3779 67.6094 28.6533 67.5508 28.8994C67.3633 29.0518 67.2168 29.2334 67.1113 29.4443C67.0059 29.6553 66.8945 29.8662 66.7773 30.0771C66.7305 30.124 66.7012 30.1357 66.6895 30.1123C66.6777 30.0889 66.6367 30.0713 66.5664 30.0596C66.5781 30.1064 66.5781 30.1416 66.5664 30.165C66.5547 30.1885 66.5371 30.2119 66.5137 30.2354C66.502 30.2471 66.4902 30.2705 66.4785 30.3057C66.4785 30.3408 66.4902 30.3877 66.5137 30.4463C66.3496 30.5166 66.2031 30.6162 66.0742 30.7451C65.9453 30.874 65.8047 30.9912 65.6523 31.0967C65.5117 31.2021 65.3359 31.2725 65.125 31.3076C64.9258 31.3428 64.6621 31.3018 64.334 31.1846C63.8535 30.833 63.4258 30.4287 63.0508 29.9717C62.6875 29.5146 62.3887 28.9697 62.1543 28.3369ZM76.9551 31.7822C76.8379 31.7822 76.6562 31.7646 76.4102 31.7295C76.2227 31.5303 76.0527 31.2607 75.9004 30.9209C75.7598 30.5693 75.6484 30.2002 75.5664 29.8135C75.4961 29.415 75.4609 29.0225 75.4609 28.6357C75.4727 28.2373 75.543 27.8857 75.6719 27.5811C75.6719 27.5693 75.7246 27.4287 75.8301 27.1592C75.9473 26.8896 76.0938 26.5498 76.2695 26.1396C76.4453 25.7178 76.6445 25.2549 76.8672 24.751C77.0898 24.2354 77.3125 23.7314 77.5352 23.2393C77.7578 22.7471 77.9688 22.3018 78.168 21.9033C78.3789 21.4932 78.5605 21.1768 78.7129 20.9541C78.8184 20.79 78.9121 20.6318 78.9941 20.4795C79.0879 20.3271 79.1758 20.1865 79.2578 20.0576C79.3867 19.8467 79.5039 19.6533 79.6094 19.4775C79.7266 19.29 79.8496 19.126 79.9785 18.9854C80.1191 18.833 80.2715 18.7041 80.4355 18.5986C80.5996 18.4814 80.7988 18.3818 81.0332 18.2998C81.1738 18.3584 81.2969 18.4229 81.4023 18.4932C81.5078 18.5518 81.6016 18.6279 81.6836 18.7217L81.7363 18.9678C81.7598 19.0498 81.7949 19.1084 81.8418 19.1436C81.9004 19.167 81.9473 19.1787 81.9824 19.1787C82.1348 19.2139 82.2637 19.2549 82.3691 19.3018C82.4863 19.3369 82.6094 19.3604 82.7383 19.3721C82.7852 19.4424 82.8262 19.5127 82.8613 19.583C82.9082 19.6533 82.9551 19.7178 83.002 19.7764C83.2363 20.1162 83.4297 20.4443 83.582 20.7607C83.7344 21.0771 83.7344 21.4229 83.582 21.7979L83.5996 21.9912C83.6582 22.0732 83.6875 22.1494 83.6875 22.2197C83.6875 22.29 83.6758 22.3896 83.6523 22.5186C83.6406 22.6123 83.6289 22.7178 83.6172 22.835C83.6172 22.9404 83.6348 23.0576 83.6699 23.1865L83.793 23.3271C83.9805 23.4209 84.1621 23.4678 84.3379 23.4678C84.5723 23.4678 84.7832 23.415 84.9707 23.3096C85.1582 23.2041 85.334 23.0986 85.498 22.9932C85.627 22.8994 85.7441 22.8232 85.8496 22.7646C85.9668 22.7061 86.0781 22.665 86.1836 22.6416C86.4297 22.4072 86.6523 22.2021 86.8516 22.0264C87.0625 21.8389 87.2793 21.6514 87.502 21.4639C87.9238 21.124 88.334 20.7607 88.7324 20.374C89.1309 19.9756 89.4473 19.4834 89.6816 18.8975C89.8105 18.8154 89.957 18.7744 90.1211 18.7744C90.2852 18.7744 90.4492 18.8096 90.6133 18.8799C90.7773 18.9385 90.9414 19.0088 91.1055 19.0908C91.1406 19.1143 91.1699 19.1318 91.1934 19.1436C91.2285 19.1553 91.2637 19.1729 91.2988 19.1963C91.2988 19.3252 91.3516 19.4424 91.457 19.5479C91.5156 19.5947 91.5566 19.624 91.5801 19.6357C91.6035 19.6475 91.627 19.6592 91.6504 19.6709C91.7441 19.7295 91.8203 19.7822 91.8789 19.8291C91.9492 19.876 92.002 19.9404 92.0371 20.0225C92.1426 20.3389 92.3184 20.585 92.5645 20.7607C92.541 20.8896 92.5469 21.0186 92.582 21.1475C92.6172 21.2646 92.6582 21.3818 92.7051 21.499C92.7285 21.5459 92.7461 21.5928 92.7578 21.6396C92.7695 21.6748 92.7871 21.7217 92.8105 21.7803L92.4238 21.7451L92.4766 22.1318C92.5117 22.3311 92.4941 22.5537 92.4238 22.7998C92.3652 23.0459 92.2949 23.2393 92.2129 23.3799C92.2363 23.7314 92.248 24.0127 92.248 24.2236C92.248 24.4229 92.2363 24.6104 92.2129 24.7861C92.1895 24.9619 92.1484 25.1318 92.0898 25.2959C92.043 25.4482 91.9785 25.6123 91.8965 25.7881C91.9434 26.6787 91.8379 27.4932 91.5801 28.2314C91.334 28.9697 91.0645 29.6611 90.7715 30.3057C90.7363 30.3877 90.7012 30.4639 90.666 30.5342C90.6309 30.6045 90.6016 30.6748 90.5781 30.7451C90.4492 30.7803 90.332 30.8213 90.2266 30.8682C90.1211 30.915 90.0215 30.9678 89.9277 31.0264C89.7988 31.1084 89.6699 31.1787 89.541 31.2373C89.4121 31.2842 89.2773 31.3076 89.1367 31.3076C88.5742 30.8975 88.2812 30.1885 88.2578 29.1807C88.2461 28.1729 88.4629 26.8896 88.9082 25.3311C88.9902 25.2725 89.0254 25.1846 89.0137 25.0674V24.874L88.8379 24.8564C88.7793 24.8564 88.7266 24.8623 88.6797 24.874C88.6328 24.8857 88.5977 24.9385 88.5742 25.0322C88.1992 25.3018 87.7891 25.583 87.3438 25.876C86.9102 26.1572 86.459 26.4209 85.9902 26.667C85.5215 26.9014 85.041 27.1006 84.5488 27.2646C84.0684 27.417 83.5996 27.4932 83.1426 27.4932C81.9707 27.4932 81.0859 26.8955 80.4883 25.7002L80.3301 25.3838L80.1543 25.665C80.1191 25.7236 80.0547 25.8408 79.9609 26.0166C79.8789 26.1807 79.791 26.374 79.6973 26.5967C79.6152 26.8193 79.5391 27.0479 79.4688 27.2822C79.4102 27.5166 79.3926 27.7217 79.416 27.8975C79.2754 28.0264 79.1348 28.1729 78.9941 28.3369C78.8652 28.501 78.7715 28.6885 78.7129 28.8994C78.6895 28.958 78.6836 29.0166 78.6953 29.0752C78.707 29.1221 78.7246 29.1748 78.748 29.2334C78.7363 29.3154 78.7129 29.374 78.6777 29.4092C78.6426 29.4443 78.6016 29.4795 78.5547 29.5146C78.4961 29.5732 78.4375 29.6377 78.3789 29.708C78.3203 29.7666 78.2676 29.8369 78.2207 29.9189C78.1973 29.9893 78.1797 30.0654 78.168 30.1475C78.1562 30.2178 78.1445 30.2822 78.1328 30.3408C78.1328 30.4697 78.1152 30.5576 78.0801 30.6045C77.9629 30.8506 77.8574 31.0557 77.7637 31.2197C77.6816 31.3721 77.5996 31.4893 77.5176 31.5713C77.4355 31.6533 77.3477 31.7061 77.2539 31.7295C77.1719 31.7646 77.0723 31.7822 76.9551 31.7822ZM102.707 21.6396C102.719 21.7217 102.719 21.7861 102.707 21.833C102.707 21.8682 102.701 21.9033 102.689 21.9385C102.689 21.9736 102.689 22.0146 102.689 22.0615C102.689 22.0967 102.701 22.1553 102.725 22.2373C102.479 22.6357 102.191 22.9111 101.863 23.0635C101.547 23.2041 101.201 23.3096 100.826 23.3799C100.451 23.4385 100.064 23.5029 99.666 23.5732C99.2793 23.6436 98.8926 23.7959 98.5059 24.0303C98.3535 23.9717 98.2129 23.9717 98.084 24.0303C97.9668 24.0889 97.791 24.1064 97.5566 24.083C97.4863 24.1533 97.3984 24.2061 97.293 24.2412C97.1875 24.2646 97.082 24.2939 96.9766 24.3291C97.0234 24.4346 97.041 24.5459 97.0293 24.6631C97.0293 24.7686 97.0469 24.8564 97.082 24.9268C97.4922 24.9619 97.9434 24.9561 98.4355 24.9092C98.9395 24.8623 99.4316 24.833 99.9121 24.8213C99.9238 24.8799 99.918 24.9209 99.8945 24.9443C99.8711 24.9561 99.8652 24.9854 99.877 25.0322C99.959 25.0908 100.041 25.167 100.123 25.2607C100.205 25.3428 100.287 25.4248 100.369 25.5068C100.451 25.5889 100.533 25.6592 100.615 25.7178C100.709 25.7646 100.814 25.7822 100.932 25.7705C100.979 25.8643 101.008 25.9697 101.02 26.0869C101.043 26.1924 101.031 26.3037 100.984 26.4209C100.797 26.5498 100.609 26.6846 100.422 26.8252C100.234 26.9541 100.035 27.0713 99.8242 27.1768C99.625 27.2822 99.4082 27.3701 99.1738 27.4404C98.9512 27.499 98.6992 27.5225 98.418 27.5107C98.3594 27.5107 98.3125 27.5107 98.2773 27.5107C98.2539 27.5107 98.2188 27.4932 98.1719 27.458C98.0781 27.5166 97.9434 27.5342 97.7676 27.5107C97.6035 27.4873 97.4746 27.5049 97.3809 27.5635C97.252 27.5049 97.0938 27.4814 96.9062 27.4932C96.7305 27.4932 96.5723 27.4697 96.4316 27.4229C96.2441 27.6689 96.0742 27.9326 95.9219 28.2139C95.7695 28.4951 95.6348 28.7939 95.5176 29.1104C95.916 29.1689 96.2441 29.1924 96.502 29.1807C96.7715 29.1689 97.0234 29.1514 97.2578 29.1279C97.4922 29.0928 97.7324 29.0635 97.9785 29.04C98.2246 29.0049 98.5352 28.9932 98.9102 29.0049C99.1445 28.876 99.4199 28.7939 99.7363 28.7588C100.064 28.7119 100.363 28.6416 100.633 28.5479C100.727 28.583 100.809 28.6475 100.879 28.7412C100.949 28.8232 101.014 28.9053 101.072 28.9873C101.143 29.0576 101.213 29.1221 101.283 29.1807C101.354 29.2393 101.441 29.2627 101.547 29.251C101.594 29.2979 101.623 29.3564 101.635 29.4268C101.658 29.4854 101.676 29.5439 101.688 29.6025C101.699 29.6611 101.717 29.7139 101.74 29.7607C101.775 29.7959 101.828 29.8076 101.898 29.7959C101.723 30.1826 101.518 30.4814 101.283 30.6924C101.061 30.8916 100.803 31.0439 100.51 31.1494C100.217 31.2549 99.8887 31.3369 99.5254 31.3955C99.1738 31.4541 98.7812 31.5244 98.3477 31.6064C98.2422 31.6299 98.1543 31.624 98.084 31.5889C98.0137 31.5654 97.9316 31.5537 97.8379 31.5537C97.5684 31.6123 97.2461 31.665 96.8711 31.7119C96.4961 31.7588 96.1152 31.7764 95.7285 31.7646C95.3418 31.7529 94.9727 31.7002 94.6211 31.6064C94.2695 31.5244 93.9824 31.3721 93.7598 31.1494C93.666 31.0674 93.6016 30.9736 93.5664 30.8682C93.543 30.751 93.4668 30.6631 93.3379 30.6045C93.3262 30.4521 93.3027 30.2822 93.2676 30.0947C93.2324 29.9072 93.1973 29.7139 93.1621 29.5146C93.127 29.3037 93.0977 29.0986 93.0742 28.8994C93.0625 28.7002 93.0742 28.5186 93.1094 28.3545C93.1445 28.1787 93.2148 28.0205 93.3203 27.8799C93.4375 27.7393 93.4785 27.5869 93.4434 27.4229C93.502 27.4111 93.5371 27.3818 93.5488 27.335C93.5605 27.2764 93.6074 27.2529 93.6895 27.2646C93.7598 27.0537 93.8359 26.8545 93.918 26.667C94 26.4795 94.082 26.2979 94.1641 26.1221C94.2578 25.9463 94.3457 25.7705 94.4277 25.5947C94.5215 25.4072 94.6094 25.2021 94.6914 24.9795C94.5273 24.8271 94.4043 24.6631 94.3223 24.4873C94.252 24.2998 94.1992 24.1182 94.1641 23.9424C94.1289 23.7549 94.0996 23.5674 94.0762 23.3799C94.0527 23.1807 94.0117 22.9814 93.9531 22.7822C94.0703 22.6064 94.2109 22.4658 94.375 22.3604C94.5508 22.2432 94.7383 22.1494 94.9375 22.0791C95.1367 22.0088 95.3535 21.9502 95.5879 21.9033C95.8223 21.8564 96.0684 21.8037 96.3262 21.7451C96.7949 21.5928 97.2109 21.4756 97.5742 21.3936C97.9492 21.3115 98.3125 21.2471 98.6641 21.2002C99.0273 21.1416 99.4023 21.0889 99.7891 21.042C100.176 20.9951 100.615 20.9248 101.107 20.8311C101.213 20.9365 101.312 20.9893 101.406 20.9893C101.453 20.8838 101.506 20.8545 101.564 20.9014C101.635 20.9365 101.664 20.9014 101.652 20.7959C101.77 20.9951 101.916 21.165 102.092 21.3057C102.279 21.4346 102.484 21.5459 102.707 21.6396ZM112.287 23.0811C111.994 23.0811 111.678 23.1045 111.338 23.1514C110.998 23.1865 110.664 23.2275 110.336 23.2744C110.102 23.3096 109.873 23.3389 109.65 23.3623C109.439 23.3857 109.246 23.4033 109.07 23.415C108.988 23.6729 108.906 23.9014 108.824 24.1006C108.742 24.2998 108.654 24.4932 108.561 24.6807C108.467 24.8799 108.379 25.085 108.297 25.2959C108.227 25.4951 108.156 25.7119 108.086 25.9463C107.969 26.1338 107.869 26.3096 107.787 26.4736C107.717 26.626 107.658 26.8018 107.611 27.001C107.471 27.1768 107.365 27.3643 107.295 27.5635C107.225 27.751 107.172 27.915 107.137 28.0557L107.066 28.2666C106.996 28.3369 106.955 28.3955 106.943 28.4424C106.932 28.4775 106.902 28.5127 106.855 28.5479C106.844 28.6768 106.803 28.8057 106.732 28.9346C106.709 28.9932 106.691 29.0518 106.68 29.1104C106.668 29.1572 106.662 29.1924 106.662 29.2158C106.662 29.333 106.633 29.4092 106.574 29.4443C106.586 29.5029 106.586 29.5674 106.574 29.6377C106.562 29.6963 106.551 29.7549 106.539 29.8135C106.504 29.9541 106.492 30.0654 106.504 30.1475C106.539 30.1943 106.568 30.2354 106.592 30.2705C106.627 30.3057 106.65 30.3525 106.662 30.4111C106.732 30.458 106.785 30.4873 106.82 30.499C106.867 30.5342 106.938 30.5752 107.031 30.6221L107.189 30.7979C107.248 31.1377 107.195 31.4072 107.031 31.6064C106.855 31.8291 106.557 31.9404 106.135 31.9404H105.924C105.865 31.8818 105.83 31.835 105.818 31.7998C105.725 31.7646 105.648 31.7354 105.59 31.7119C105.531 31.6885 105.479 31.6416 105.432 31.5713C105.279 31.501 105.156 31.4424 105.062 31.3955L104.904 31.3076C104.904 31.1787 104.904 31.1084 104.904 31.0967C104.822 30.9912 104.758 30.874 104.711 30.7451C104.676 30.6162 104.646 30.4873 104.623 30.3584C104.6 30.2529 104.57 30.1533 104.535 30.0596C104.512 29.9658 104.477 29.8838 104.43 29.8135C104.406 29.1338 104.471 28.5596 104.623 28.0908C104.775 27.6221 104.934 27.1709 105.098 26.7373C105.191 26.5029 105.285 26.2686 105.379 26.0342C105.473 25.7881 105.555 25.5361 105.625 25.2783L105.783 25.1025C105.865 24.915 105.93 24.7627 105.977 24.6455C106.035 24.5166 106.094 24.3877 106.152 24.2588C106.188 24.1768 106.217 24.1006 106.24 24.0303C106.275 23.9482 106.305 23.8779 106.328 23.8193C106.258 23.8193 106.193 23.8252 106.135 23.8369C106.076 23.8369 106.018 23.8428 105.959 23.8545C105.889 23.8662 105.824 23.8779 105.766 23.8896C105.707 23.8896 105.648 23.8896 105.59 23.8896C105.508 23.8896 105.449 23.8838 105.414 23.8721C105.285 23.9307 105.145 23.96 104.992 23.96H104.816C104.781 23.96 104.746 23.96 104.711 23.96C104.688 23.9482 104.664 23.9424 104.641 23.9424C104.523 23.9424 104.43 23.96 104.359 23.9951C104.219 23.9951 104.084 23.9951 103.955 23.9951H103.779C103.756 23.9951 103.727 24.001 103.691 24.0127C103.656 24.0127 103.627 24.0127 103.604 24.0127C103.521 24.0127 103.434 24.0068 103.34 23.9951C103.246 23.9717 103.146 23.9307 103.041 23.8721C102.9 23.6846 102.807 23.585 102.76 23.5732L102.602 23.3623C102.59 23.292 102.572 23.2275 102.549 23.1689C102.525 23.0986 102.502 23.0225 102.479 22.9404C102.432 22.8232 102.385 22.7002 102.338 22.5713C102.303 22.4307 102.285 22.2666 102.285 22.0791C102.297 21.9854 102.32 21.915 102.355 21.8682C102.391 21.8213 102.42 21.7803 102.443 21.7451L102.496 21.4814L102.725 21.499H103.217C103.592 21.499 103.973 21.4873 104.359 21.4639C104.746 21.4287 105.145 21.3936 105.555 21.3584C105.789 21.335 106.023 21.3115 106.258 21.2881C106.504 21.2646 106.756 21.2412 107.014 21.2178C107.061 21.1123 107.107 21.0127 107.154 20.9189L107.33 20.8311C107.541 20.8193 107.688 20.8486 107.77 20.9189C107.863 20.9775 107.939 21.0361 107.998 21.0947C108.256 21.0713 108.514 21.0479 108.771 21.0244C109.041 20.9893 109.311 20.9482 109.58 20.9014C109.979 20.8428 110.377 20.79 110.775 20.7432C111.186 20.6963 111.578 20.6729 111.953 20.6729C112.117 20.6729 112.275 20.6787 112.428 20.6904C112.58 20.7021 112.721 20.7197 112.85 20.7432L113.025 20.8662C113.061 20.9365 113.107 21.001 113.166 21.0596C113.236 21.1182 113.307 21.1768 113.377 21.2354C113.518 21.3643 113.658 21.5166 113.799 21.6924C113.939 21.8682 113.992 22.126 113.957 22.4658C113.863 22.6064 113.793 22.6885 113.746 22.7119L113.588 22.9229L113.412 22.9053C113.342 22.9053 113.277 22.917 113.219 22.9404C113.16 22.9521 113.102 22.9697 113.043 22.9932C112.996 23.0166 112.949 23.04 112.902 23.0635C112.855 23.0752 112.803 23.0869 112.744 23.0986C112.639 23.0986 112.551 23.0986 112.48 23.0986C112.422 23.0869 112.357 23.0811 112.287 23.0811ZM119.318 30.0596C119.248 30.2588 119.143 30.4639 119.002 30.6748C118.873 30.874 118.715 31.0557 118.527 31.2197C118.352 31.3721 118.152 31.501 117.93 31.6064C117.707 31.7119 117.473 31.7705 117.227 31.7822C117.074 31.7471 116.969 31.7061 116.91 31.6592C116.863 31.624 116.811 31.5889 116.752 31.5537C116.717 31.5303 116.682 31.5127 116.646 31.501C116.623 31.4775 116.6 31.46 116.576 31.4482L116.365 31.3604L116.436 31.1318C116.459 31.0381 116.453 30.9678 116.418 30.9209C116.383 30.8623 116.312 30.7861 116.207 30.6924C116.172 30.6572 116.137 30.6221 116.102 30.5869C116.066 30.5518 116.037 30.5166 116.014 30.4814L115.715 30.1475L116.189 30.0244C116.482 29.9424 116.676 29.8369 116.77 29.708C116.875 29.5791 116.916 29.3623 116.893 29.0576C116.658 29.0107 116.459 29.0049 116.295 29.04C116.143 29.0752 115.984 29.1162 115.82 29.1631C115.609 29.2217 115.393 29.2744 115.17 29.3213C114.959 29.3564 114.725 29.374 114.467 29.374C114.373 29.374 114.285 29.374 114.203 29.374C114.121 29.3623 114.033 29.3506 113.939 29.3389L113.764 29.3037C113.74 29.1748 113.717 29.1045 113.693 29.0928C113.67 29.0693 113.646 29.0459 113.623 29.0225C113.564 28.9639 113.5 28.8877 113.43 28.7939C113.371 28.6885 113.359 28.5596 113.395 28.4072C113.336 28.3018 113.301 28.1963 113.289 28.0908C113.219 28.2314 113.166 28.3779 113.131 28.5303L113.061 28.7061L112.885 28.7412C112.861 28.7529 112.844 28.7822 112.832 28.8291C112.82 28.8643 112.814 28.8936 112.814 28.917L112.727 29.2158C112.703 29.2393 112.68 29.2627 112.656 29.2861C112.633 29.2979 112.609 29.3154 112.586 29.3389C112.562 29.4443 112.533 29.5498 112.498 29.6553C112.463 29.7607 112.428 29.8604 112.393 29.9541C112.334 30.1064 112.281 30.2588 112.234 30.4111C112.199 30.5518 112.188 30.6924 112.199 30.833L112.129 31.0264C112.07 31.0967 112.006 31.1553 111.936 31.2021C111.865 31.2373 111.795 31.2725 111.725 31.3076C111.701 31.3311 111.666 31.3545 111.619 31.3779C111.584 31.3896 111.555 31.4014 111.531 31.4131L111.479 31.6064L111.268 31.6416C111.139 31.665 111.045 31.6826 110.986 31.6943C110.939 31.7061 110.881 31.7119 110.811 31.7119L110.635 31.6943C110.506 31.5889 110.406 31.5068 110.336 31.4482C110.266 31.3779 110.184 31.3135 110.09 31.2549C109.984 31.1143 109.926 31.0088 109.914 30.9385C109.902 30.8682 109.891 30.8037 109.879 30.7451C109.855 30.6748 109.844 30.6162 109.844 30.5693C109.832 30.5225 109.814 30.4873 109.791 30.4639L109.562 30.2529L109.756 30.0947L109.773 29.7959C110.008 29.1982 110.254 28.624 110.512 28.0732C110.781 27.5225 111.057 26.96 111.338 26.3857C111.432 26.1982 111.52 26.0107 111.602 25.8232C111.695 25.6357 111.789 25.4482 111.883 25.2607C111.871 25.2256 111.865 25.1846 111.865 25.1377C111.865 25.0908 111.877 25.0381 111.9 24.9795C112.029 24.7803 112.135 24.6045 112.217 24.4521C112.299 24.2881 112.381 24.124 112.463 23.96C112.557 23.7607 112.65 23.5674 112.744 23.3799C112.85 23.1924 112.979 22.999 113.131 22.7998L113.412 22.6768C113.447 22.665 113.488 22.6533 113.535 22.6416C113.582 22.6182 113.635 22.6064 113.693 22.6064L113.957 22.6416C114.285 22.4893 114.572 22.2783 114.818 22.0088C115.064 21.7275 115.316 21.3936 115.574 21.0068L115.75 20.7607L115.979 20.9014C116.037 20.9365 116.119 20.9717 116.225 21.0068C116.33 21.0303 116.441 21.0596 116.559 21.0947C116.77 21.1416 116.969 21.1943 117.156 21.2529C117.344 21.3115 117.496 21.3994 117.613 21.5166C117.684 21.7041 117.725 21.8447 117.736 21.9385C117.748 22.0322 117.766 22.126 117.789 22.2197C117.824 22.4189 117.854 22.6182 117.877 22.8174C117.912 23.0166 117.936 23.2393 117.947 23.4854C118.006 23.6846 118.053 23.8838 118.088 24.083C118.135 24.2705 118.176 24.4639 118.211 24.6631C118.27 24.9443 118.328 25.2197 118.387 25.4893C118.445 25.7471 118.521 25.9932 118.615 26.2275C118.709 26.2275 118.768 26.2334 118.791 26.2451C118.85 26.2217 118.908 26.2041 118.967 26.1924C119.037 26.1807 119.113 26.1689 119.195 26.1572L119.389 26.1396L119.459 26.3154C119.471 26.374 119.529 26.4326 119.635 26.4912C119.787 26.5029 119.898 26.5381 119.969 26.5967C120.039 26.6436 120.104 26.6963 120.162 26.7549C120.209 26.8018 120.256 26.8369 120.303 26.8604L120.566 26.9658L120.426 27.2295C120.309 27.4404 120.139 27.6455 119.916 27.8447C119.705 28.0322 119.465 28.1904 119.195 28.3193C119.207 28.3896 119.213 28.46 119.213 28.5303C119.225 28.5889 119.242 28.6533 119.266 28.7236C119.301 28.9229 119.33 29.1279 119.354 29.3389C119.377 29.5498 119.377 29.7666 119.354 29.9893L119.318 30.0596ZM114.238 27.0186C114.59 26.9951 114.906 26.9717 115.188 26.9482C115.48 26.9131 115.803 26.8604 116.154 26.79C116.072 26.4385 115.984 26.0752 115.891 25.7002C115.797 25.3135 115.697 24.9326 115.592 24.5576L115.486 24.7334C115.252 24.9795 115.023 25.2549 114.801 25.5596C114.59 25.8643 114.408 26.1514 114.256 26.4209C114.186 26.5264 114.115 26.6318 114.045 26.7373C113.975 26.8428 113.91 26.9482 113.852 27.0537C113.922 27.042 113.986 27.0361 114.045 27.0361C114.115 27.0361 114.18 27.0303 114.238 27.0186ZM125.119 31.3428C124.791 31.4482 124.434 31.5537 124.047 31.6592C123.66 31.7646 123.273 31.8174 122.887 31.8174C122.301 31.8174 121.838 31.6709 121.498 31.3779C121.439 31.249 121.387 31.1611 121.34 31.1143C121.305 31.0674 121.27 31.0205 121.234 30.9736C121.211 30.915 121.193 30.8389 121.182 30.7451C121.041 30.5811 120.93 30.3936 120.848 30.1826C120.766 29.96 120.707 29.7373 120.672 29.5146C120.648 29.2803 120.643 29.0459 120.654 28.8115C120.678 28.5771 120.719 28.3545 120.777 28.1436C120.801 28.0967 120.812 28.0498 120.812 28.0029C120.824 27.9561 120.836 27.9033 120.848 27.8447C120.895 27.6572 120.941 27.4756 120.988 27.2998C121.047 27.124 121.123 26.9717 121.217 26.8428C121.17 26.7373 121.17 26.6201 121.217 26.4912C121.264 26.3623 121.316 26.2451 121.375 26.1396C121.539 25.6943 121.674 25.3193 121.779 25.0146C121.896 24.6982 122.014 24.3877 122.131 24.083C122.33 23.5557 122.518 23.0342 122.693 22.5186C122.869 22.0029 123.027 21.4463 123.168 20.8486C123.262 20.79 123.332 20.749 123.379 20.7256C123.449 20.7021 123.508 20.6846 123.555 20.6729C123.766 20.7783 124.012 20.8838 124.293 20.9893C124.574 21.083 124.809 21.1299 124.996 21.1299C125.09 21.1885 125.148 21.2354 125.172 21.2705C125.195 21.2939 125.219 21.3174 125.242 21.3408C125.371 21.4932 125.482 21.6514 125.576 21.8154C125.67 21.9678 125.699 22.1729 125.664 22.4307C125.594 22.5361 125.541 22.5889 125.506 22.5889C125.447 22.8232 125.383 23.0225 125.312 23.1865C125.254 23.3506 125.189 23.5146 125.119 23.6787C125.037 23.8545 124.961 24.0303 124.891 24.2061C124.82 24.3818 124.762 24.5986 124.715 24.8564C124.668 24.915 124.633 24.9678 124.609 25.0146C124.598 25.0615 124.58 25.1143 124.557 25.1729C124.533 25.2314 124.504 25.2959 124.469 25.3662C124.445 25.4248 124.404 25.4775 124.346 25.5244C124.311 25.8291 124.252 26.0752 124.17 26.2627C124.1 26.4502 124.023 26.6377 123.941 26.8252C123.801 27.165 123.672 27.5049 123.555 27.8447C123.449 28.1846 123.385 28.5713 123.361 29.0049C123.42 28.9814 123.473 28.9697 123.52 28.9697C123.578 28.9697 123.631 28.9697 123.678 28.9697C123.783 28.9697 123.906 28.9873 124.047 29.0225C124.398 28.835 124.779 28.7236 125.189 28.6885C125.611 28.6533 126.027 28.6299 126.438 28.6182C126.602 28.6182 126.766 28.6182 126.93 28.6182C127.094 28.6182 127.246 28.6064 127.387 28.583C127.492 28.6416 127.557 28.6768 127.58 28.6885C127.615 28.6885 127.662 28.6885 127.721 28.6885C127.803 28.6885 127.873 28.6943 127.932 28.7061C128.072 28.835 128.207 28.9287 128.336 28.9873C128.465 29.0459 128.6 29.0986 128.74 29.1455C128.869 29.1924 128.992 29.2451 129.109 29.3037C129.238 29.3506 129.361 29.4209 129.479 29.5146L129.602 30.2705C129.684 30.376 129.719 30.4463 129.707 30.4814C129.707 30.5752 129.684 30.6455 129.637 30.6924L129.672 30.8857C129.496 30.9209 129.373 30.9619 129.303 31.0088C129.244 31.0557 129.186 31.1084 129.127 31.167C129.033 31.1787 128.963 31.1846 128.916 31.1846C128.881 31.1846 128.846 31.1846 128.811 31.1846C128.646 31.1846 128.447 31.2139 128.213 31.2725C127.896 31.167 127.568 31.1143 127.229 31.1143C127.1 31.1143 126.965 31.1201 126.824 31.1318C126.684 31.1436 126.543 31.1553 126.402 31.167C126.262 31.1904 126.115 31.208 125.963 31.2197C125.822 31.2314 125.676 31.2373 125.523 31.2373L125.119 31.3428ZM138.109 30.2881C138.051 30.1592 137.992 30.0361 137.934 29.9189C137.875 29.8018 137.816 29.6963 137.758 29.6025C137.617 29.3213 137.494 29.0693 137.389 28.8467C137.283 28.624 137.184 28.3662 137.09 28.0732C137.125 27.874 137.184 27.54 137.266 27.0713C137.359 26.6025 137.465 26.0928 137.582 25.542C137.699 24.9795 137.822 24.4111 137.951 23.8369C138.092 23.2627 138.232 22.7705 138.373 22.3604C138.502 21.9971 138.643 21.6104 138.795 21.2002C138.959 20.79 139.135 20.415 139.322 20.0752C139.521 19.7236 139.732 19.4248 139.955 19.1787C140.178 18.9326 140.418 18.7861 140.676 18.7393C140.746 18.833 140.822 18.9092 140.904 18.9678C140.986 19.0146 141.062 19.0498 141.133 19.0732C141.332 19.3545 141.525 19.5947 141.713 19.7939C141.9 19.9814 142.123 20.1689 142.381 20.3564C142.311 20.708 142.205 21.1006 142.064 21.5342C141.936 21.9561 141.795 22.3838 141.643 22.8174C141.502 23.251 141.361 23.6729 141.221 24.083C141.08 24.4814 140.969 24.8271 140.887 25.1201C140.816 25.3545 140.746 25.624 140.676 25.9287C140.617 26.1865 140.553 26.4971 140.482 26.8604C140.424 27.2236 140.365 27.6221 140.307 28.0557C140.471 28.0088 140.652 27.915 140.852 27.7744C141.062 27.6338 141.256 27.4873 141.432 27.335C141.643 27.1592 141.848 26.9717 142.047 26.7725C142.316 26.5029 142.545 26.2568 142.732 26.0342C142.92 25.8115 143.09 25.583 143.242 25.3486C143.406 25.1025 143.57 24.8389 143.734 24.5576C143.91 24.2646 144.115 23.9189 144.35 23.5205C144.561 23.1807 144.777 22.8174 145 22.4307C145.234 22.0439 145.469 21.6748 145.703 21.3232C145.938 20.9717 146.166 20.6494 146.389 20.3564C146.611 20.0518 146.816 19.8174 147.004 19.6533C147.133 19.7822 147.279 19.917 147.443 20.0576C147.619 20.1982 147.807 20.2979 148.006 20.3564C148.088 20.4854 148.164 20.6025 148.234 20.708C148.316 20.8018 148.393 20.8955 148.463 20.9893C148.557 21.1182 148.639 21.2354 148.709 21.3408C148.791 21.4463 148.861 21.5635 148.92 21.6924C148.908 21.7861 148.885 21.9092 148.85 22.0615C148.826 22.2139 148.797 22.3838 148.762 22.5713C148.727 22.7471 148.686 22.9287 148.639 23.1162C148.604 23.3037 148.568 23.4854 148.533 23.6611C148.416 24.1885 148.328 24.5869 148.27 24.8564C148.211 25.126 148.17 25.3369 148.146 25.4893C148.123 25.6416 148.105 25.7705 148.094 25.876C148.094 25.9814 148.094 26.1279 148.094 26.3154C148.094 26.4561 148.105 26.5967 148.129 26.7373C148.152 26.8662 148.176 27.001 148.199 27.1416C148.234 27.2705 148.293 27.3936 148.375 27.5107L149.219 26.8604C149.453 26.6846 149.676 26.4385 149.887 26.1221C150.109 25.7939 150.32 25.4248 150.52 25.0146C150.73 24.5928 150.936 24.1416 151.135 23.6611C151.334 23.1689 151.533 22.665 151.732 22.1494C151.873 21.7744 152.014 21.4053 152.154 21.042C152.307 20.667 152.459 20.3154 152.611 19.9873C152.764 19.6475 152.91 19.3428 153.051 19.0732C153.203 18.792 153.35 18.5576 153.49 18.3701C153.807 18.5693 154.076 18.7686 154.299 18.9678C154.533 19.167 154.732 19.3896 154.896 19.6357C155.072 19.8701 155.207 20.1455 155.301 20.4619C155.406 20.7666 155.482 21.1299 155.529 21.5518C155.271 22.0439 155.031 22.5479 154.809 23.0635C154.586 23.5791 154.363 24.1006 154.141 24.6279C153.859 25.3076 153.566 25.9873 153.262 26.667C152.969 27.335 152.641 27.9736 152.277 28.583C151.914 29.1924 151.504 29.7549 151.047 30.2705C150.602 30.7744 150.086 31.2021 149.5 31.5537C149.336 31.5186 149.195 31.501 149.078 31.501C148.949 31.501 148.838 31.5186 148.744 31.5537C148.662 31.5889 148.586 31.6357 148.516 31.6943C148.035 31.4717 147.648 31.1436 147.355 30.71C147.062 30.2646 146.775 29.7725 146.494 29.2334C146.459 29.1514 146.418 29.0752 146.371 29.0049C146.336 28.9229 146.295 28.8408 146.248 28.7588L145.949 28.2139L145.773 27.8799L145.527 28.1084L145.158 28.4424L144.947 28.6533C144.584 28.9932 144.215 29.3271 143.84 29.6553C143.465 29.9717 143.072 30.2646 142.662 30.5342C142.252 30.792 141.812 31.0029 141.344 31.167C140.887 31.3311 140.395 31.4189 139.867 31.4307C139.773 31.3838 139.686 31.3428 139.604 31.3076C139.533 31.2725 139.463 31.2373 139.393 31.2021C139.123 31.0732 138.9 30.9502 138.725 30.833C138.549 30.7158 138.344 30.5342 138.109 30.2881ZM164.881 26.2627C164.869 26.4033 164.881 26.5381 164.916 26.667C164.951 26.7959 164.992 26.9248 165.039 27.0537C165.098 27.1709 165.15 27.2939 165.197 27.4229C165.244 27.5518 165.279 27.6807 165.303 27.8096C165.326 27.9736 165.326 28.1553 165.303 28.3545C165.279 28.542 165.238 28.7295 165.18 28.917C165.121 29.0928 165.045 29.2568 164.951 29.4092C164.857 29.5498 164.746 29.6553 164.617 29.7256C164.453 29.9365 164.254 30.1006 164.02 30.2178C163.785 30.335 163.568 30.4756 163.369 30.6396C163.24 30.7217 163.094 30.7803 162.93 30.8154C162.777 30.8506 162.619 30.8857 162.455 30.9209C162.326 30.9912 162.174 31.0674 161.998 31.1494C161.822 31.2197 161.641 31.29 161.453 31.3604C161.266 31.4189 161.078 31.4658 160.891 31.501C160.703 31.5244 160.539 31.5303 160.398 31.5186C160.047 31.6475 159.701 31.7295 159.361 31.7646C159.033 31.8115 158.646 31.7881 158.201 31.6943C157.779 31.7529 157.387 31.7354 157.023 31.6416C156.672 31.5479 156.355 31.4014 156.074 31.2021C155.805 30.9912 155.564 30.7451 155.354 30.4639C155.154 30.1709 154.99 29.8662 154.861 29.5498C154.768 28.8818 154.791 28.2783 154.932 27.7393C155.072 27.1885 155.271 26.6846 155.529 26.2275C155.799 25.7588 156.104 25.3311 156.443 24.9443C156.783 24.5459 157.111 24.1592 157.428 23.7842C157.498 23.8076 157.551 23.8076 157.586 23.7842C157.633 23.749 157.674 23.708 157.709 23.6611C157.744 23.6025 157.779 23.5498 157.814 23.5029C157.861 23.4561 157.914 23.4268 157.973 23.415C158.055 23.2393 158.172 23.1104 158.324 23.0283C158.488 22.9346 158.617 22.8057 158.711 22.6416C158.816 22.6182 158.904 22.583 158.975 22.5361C159.045 22.4893 159.109 22.4365 159.168 22.3779C159.238 22.3193 159.309 22.2666 159.379 22.2197C159.449 22.1611 159.531 22.1201 159.625 22.0967V21.9033C159.836 21.8096 159.988 21.7041 160.082 21.5869C160.188 21.458 160.311 21.3057 160.451 21.1299C160.557 21.1182 160.639 21.1123 160.697 21.1123C160.768 21.1123 160.867 21.1006 160.996 21.0771C161.09 20.9131 161.172 20.79 161.242 20.708C161.324 20.626 161.441 20.5381 161.594 20.4443C161.734 20.5146 161.887 20.5615 162.051 20.585C162.227 20.6084 162.379 20.6846 162.508 20.8135C162.52 20.9307 162.555 21.0244 162.613 21.0947C162.672 21.1533 162.736 21.2119 162.807 21.2705C162.877 21.3174 162.941 21.3701 163 21.4287C163.07 21.4873 163.117 21.5693 163.141 21.6748C163.188 21.6865 163.217 21.6807 163.229 21.6572C163.252 21.6338 163.287 21.6279 163.334 21.6396C163.369 21.8037 163.41 21.915 163.457 21.9736C163.504 22.0205 163.551 22.1201 163.598 22.2725C163.539 22.3896 163.492 22.5127 163.457 22.6416C163.434 22.7588 163.363 22.8467 163.246 22.9053C163.234 22.9873 163.258 23.0342 163.316 23.0459C163.375 23.0459 163.41 23.0752 163.422 23.1338C163.434 23.2393 163.416 23.3154 163.369 23.3623C163.65 23.8193 163.902 24.3057 164.125 24.8213C164.348 25.3252 164.6 25.8057 164.881 26.2627ZM162.684 27.9326C162.73 27.8037 162.789 27.6982 162.859 27.6162C162.941 27.5342 162.988 27.4111 163 27.2471C162.941 27.1533 162.906 27.083 162.895 27.0361C162.883 26.9775 162.877 26.8896 162.877 26.7725C162.619 26.4092 162.396 26.0225 162.209 25.6123C162.021 25.1904 161.811 24.7979 161.576 24.4346C161.553 24.4814 161.512 24.5283 161.453 24.5752C161.395 24.6221 161.33 24.6104 161.26 24.54C161.236 24.6338 161.195 24.7041 161.137 24.751C161.078 24.7861 161.014 24.8037 160.943 24.8037C160.873 24.792 160.797 24.7744 160.715 24.751C160.645 24.7158 160.58 24.6748 160.521 24.6279C160.182 24.8975 159.842 25.1611 159.502 25.4189C159.162 25.6768 158.857 25.9756 158.588 26.3154C158.541 26.3389 158.512 26.3506 158.5 26.3506C158.488 26.3389 158.453 26.3447 158.395 26.3682C158.301 26.5908 158.184 26.7959 158.043 26.9834C157.914 27.1592 157.785 27.3408 157.656 27.5283C157.527 27.7158 157.416 27.915 157.322 28.126C157.229 28.3369 157.176 28.583 157.164 28.8643C157.363 29.0283 157.598 29.1279 157.867 29.1631C158.137 29.1982 158.412 29.2041 158.693 29.1807C158.986 29.1572 159.268 29.1221 159.537 29.0752C159.818 29.0166 160.076 28.9873 160.311 28.9873C160.803 28.8701 161.225 28.7178 161.576 28.5303C161.928 28.3311 162.297 28.1318 162.684 27.9326ZM168.783 29.708C168.654 30.1768 168.537 30.5342 168.432 30.7803C168.338 31.0146 168.191 31.2607 167.992 31.5186C167.84 31.4951 167.734 31.5127 167.676 31.5713C167.617 31.6299 167.553 31.6826 167.482 31.7295C167.377 31.7529 167.301 31.7529 167.254 31.7295C167.207 31.7061 167.166 31.6768 167.131 31.6416C167.096 31.6182 167.049 31.5889 166.99 31.5537C166.943 31.5303 166.867 31.5186 166.762 31.5186C166.738 31.4248 166.709 31.3369 166.674 31.2549C166.65 31.1729 166.574 31.1436 166.445 31.167C166.469 31.0732 166.475 30.9971 166.463 30.9385C166.451 30.8682 166.434 30.8096 166.41 30.7627C166.398 30.7041 166.387 30.6514 166.375 30.6045C166.363 30.5459 166.369 30.4756 166.393 30.3936C166.334 30.3936 166.287 30.3525 166.252 30.2705C166.217 30.1885 166.176 30.1064 166.129 30.0244C166.164 29.8135 166.199 29.6143 166.234 29.4268C166.27 29.2393 166.311 29.0635 166.357 28.8994C166.416 28.7354 166.463 28.5713 166.498 28.4072C166.533 28.2432 166.516 28.0732 166.445 27.8975C166.492 27.9326 166.527 27.9268 166.551 27.8799C166.574 27.8213 166.592 27.751 166.604 27.6689C166.615 27.5752 166.621 27.4873 166.621 27.4053C166.621 27.3115 166.615 27.2354 166.604 27.1768C166.721 26.8721 166.814 26.5615 166.885 26.2451C166.967 25.917 167.037 25.5947 167.096 25.2783C167.166 24.9619 167.236 24.6514 167.307 24.3467C167.377 24.042 167.471 23.7607 167.588 23.5029C167.717 23.4795 167.857 23.4971 168.01 23.5557C168.174 23.6025 168.273 23.667 168.309 23.749C168.613 23.5146 168.883 23.2334 169.117 22.9053C169.352 22.5654 169.592 22.2373 169.838 21.9209C170.084 21.6045 170.354 21.3232 170.646 21.0771C170.951 20.8311 171.332 20.6846 171.789 20.6377C172.023 20.8135 172.281 20.9951 172.562 21.1826C172.855 21.3584 173.096 21.5928 173.283 21.8857C173.377 21.9326 173.453 21.9854 173.512 22.0439C173.582 22.0908 173.664 22.1436 173.758 22.2021V22.4131C173.898 22.542 174.01 22.6943 174.092 22.8701C174.186 23.0342 174.268 23.2158 174.338 23.415C174.408 23.6025 174.479 23.7959 174.549 23.9951C174.619 24.1826 174.701 24.3643 174.795 24.54C174.771 24.5986 174.76 24.6514 174.76 24.6982C174.76 24.7334 174.766 24.7744 174.777 24.8213C174.801 24.8682 174.818 24.915 174.83 24.9619C174.842 25.0088 174.842 25.0732 174.83 25.1553C174.795 25.6709 174.625 26.0869 174.32 26.4033C174.027 26.7197 173.67 26.9834 173.248 27.1943C172.826 27.3936 172.375 27.5635 171.895 27.7041C171.414 27.8447 170.98 27.9971 170.594 28.1611C170.594 28.208 170.611 28.2314 170.646 28.2314C170.693 28.2314 170.711 28.2607 170.699 28.3193C170.98 28.4951 171.203 28.6357 171.367 28.7412C171.531 28.8467 171.684 28.9346 171.824 29.0049C171.977 29.0752 172.135 29.1396 172.299 29.1982C172.475 29.2451 172.715 29.3037 173.02 29.374C173.324 29.4443 173.559 29.5029 173.723 29.5498C173.898 29.585 174.057 29.6201 174.197 29.6553C174.338 29.6787 174.479 29.7021 174.619 29.7256C174.771 29.7373 174.982 29.7549 175.252 29.7783C175.357 29.8838 175.445 30.0127 175.516 30.165C175.598 30.3057 175.65 30.4521 175.674 30.6045C175.697 30.7451 175.703 30.8857 175.691 31.0264C175.68 31.1553 175.639 31.2607 175.568 31.3428C175.58 31.3779 175.604 31.3955 175.639 31.3955C175.686 31.3838 175.732 31.3838 175.779 31.3955C175.709 31.4424 175.65 31.501 175.604 31.5713C175.557 31.6416 175.51 31.7119 175.463 31.7822C175.416 31.8525 175.363 31.9111 175.305 31.958C175.246 32.0166 175.164 32.0518 175.059 32.0635C174.695 32.2041 174.238 32.21 173.688 32.0811C173.137 31.9639 172.439 31.7412 171.596 31.4131C171.174 31.249 170.828 31.1084 170.559 30.9912C170.301 30.8623 170.072 30.7393 169.873 30.6221C169.686 30.4932 169.51 30.3584 169.346 30.2178C169.193 30.0771 169.006 29.9072 168.783 29.708ZM171.297 23.6787C171.168 23.8662 171.021 24.0361 170.857 24.1885C170.705 24.3408 170.553 24.499 170.4 24.6631C170.26 24.8154 170.131 24.9912 170.014 25.1904C169.896 25.3779 169.814 25.6006 169.768 25.8584C170.178 25.8115 170.605 25.7002 171.051 25.5244C171.496 25.3369 171.918 25.1611 172.316 24.9971C172.27 24.6338 172.141 24.3408 171.93 24.1182C171.73 23.8955 171.52 23.749 171.297 23.6787ZM186.291 30.9033C185.729 30.9268 185.23 30.915 184.797 30.8682C184.375 30.8213 183.959 30.71 183.549 30.5342C183.525 30.5225 183.502 30.4932 183.479 30.4463C183.455 30.3994 183.432 30.3643 183.408 30.3408C183.338 30.3057 183.25 30.2939 183.145 30.3057C183.051 30.3057 182.969 30.2939 182.898 30.2705C182.805 30.2236 182.658 30.1357 182.459 30.0068C182.26 29.8662 182.078 29.7373 181.914 29.6201C181.703 29.4561 181.504 29.292 181.316 29.1279C181.129 28.9639 180.965 28.7881 180.824 28.6006C180.789 28.5537 180.742 28.5303 180.684 28.5303C180.625 28.5186 180.572 28.501 180.525 28.4775C180.186 28.6885 179.898 28.9521 179.664 29.2686C179.43 29.585 179.207 29.9072 178.996 30.2354C178.785 30.5635 178.562 30.874 178.328 31.167C178.094 31.46 177.795 31.6826 177.432 31.835C177.326 31.835 177.232 31.8174 177.15 31.7822C177.068 31.7471 176.992 31.7002 176.922 31.6416C176.852 31.5947 176.781 31.5479 176.711 31.501C176.641 31.4541 176.564 31.4189 176.482 31.3955C176.482 31.2549 176.453 31.126 176.395 31.0088C176.348 30.8916 176.295 30.7803 176.236 30.6748C176.189 30.5693 176.154 30.4697 176.131 30.376C176.107 30.2705 176.131 30.1709 176.201 30.0771C176.131 30.0068 176.025 29.9307 175.885 29.8486C175.955 29.7783 175.984 29.7139 175.973 29.6553C175.973 29.5967 175.961 29.5381 175.938 29.4795C175.914 29.4209 175.891 29.3564 175.867 29.2861C175.855 29.2158 175.873 29.1455 175.92 29.0752C175.979 29.0752 176.049 29.0635 176.131 29.04C176.061 28.9463 176.025 28.8936 176.025 28.8818C176.037 28.8584 176.025 28.8291 175.99 28.7939C175.967 28.7236 175.979 28.6826 176.025 28.6709C176.072 28.6475 176.119 28.624 176.166 28.6006C176.213 28.0264 176.312 27.4932 176.465 27.001C176.617 26.5088 176.787 26.0342 176.975 25.5771C177.162 25.1201 177.344 24.6572 177.52 24.1885C177.707 23.7197 177.859 23.2158 177.977 22.6768C178.105 22.5479 178.205 22.3955 178.275 22.2197C178.357 22.0439 178.439 21.8682 178.521 21.6924C178.615 21.5166 178.715 21.3467 178.82 21.1826C178.938 21.0068 179.096 20.8662 179.295 20.7607C179.459 20.7725 179.605 20.8193 179.734 20.9014C179.863 20.9717 180.021 21.001 180.209 20.9893C180.244 21.0479 180.273 21.1064 180.297 21.165C180.332 21.2236 180.373 21.2822 180.42 21.3408L180.684 21.2881C180.812 21.3936 180.924 21.5283 181.018 21.6924C181.123 21.8447 181.193 22.0088 181.229 22.1846C181.264 22.3604 181.258 22.5303 181.211 22.6943C181.164 22.8467 181.053 22.9697 180.877 23.0635C180.889 23.1221 180.889 23.1689 180.877 23.2041C180.877 23.2275 180.871 23.251 180.859 23.2744C180.848 23.2979 180.842 23.3213 180.842 23.3447C180.842 23.3682 180.859 23.4033 180.895 23.4502C180.66 23.626 180.484 23.8721 180.367 24.1885C180.25 24.5049 180.186 24.7861 180.174 25.0322C180.314 24.8916 180.467 24.7568 180.631 24.6279C180.807 24.4873 180.982 24.3525 181.158 24.2236C181.346 24.0947 181.521 23.9717 181.686 23.8545C181.861 23.7373 182.02 23.6201 182.16 23.5029C182.547 23.1514 182.916 22.8701 183.268 22.6592C183.631 22.4365 184.012 22.1904 184.41 21.9209C184.504 21.8975 184.574 21.8975 184.621 21.9209C184.68 21.9326 184.738 21.9502 184.797 21.9736C184.797 21.9033 184.773 21.8623 184.727 21.8506C184.691 21.8389 184.68 21.792 184.691 21.71C184.867 21.6631 185.02 21.6104 185.148 21.5518C185.277 21.4814 185.418 21.417 185.57 21.3584C185.676 21.4639 185.775 21.5752 185.869 21.6924C185.963 21.7979 186.092 21.8623 186.256 21.8857C186.314 22.0146 186.385 22.1143 186.467 22.1846C186.549 22.2432 186.631 22.3018 186.713 22.3604C186.795 22.4189 186.865 22.4893 186.924 22.5713C186.994 22.6533 187.035 22.7822 187.047 22.958C187 23.04 186.947 23.1279 186.889 23.2217C186.842 23.3154 186.795 23.4268 186.748 23.5557C186.514 23.7666 186.273 23.9541 186.027 24.1182C185.793 24.2822 185.553 24.4404 185.307 24.5928C185.061 24.7451 184.809 24.8975 184.551 25.0498C184.293 25.2021 184.029 25.3838 183.76 25.5947C183.701 25.6768 183.625 25.7529 183.531 25.8232C183.449 25.8818 183.361 25.9463 183.268 26.0166C183.174 26.0752 183.086 26.1396 183.004 26.21C182.922 26.2803 182.857 26.3623 182.811 26.4561C182.775 26.4678 182.74 26.4736 182.705 26.4736C182.67 26.4736 182.635 26.4795 182.6 26.4912C182.564 26.5732 182.506 26.6377 182.424 26.6846C182.354 26.7314 182.307 26.7959 182.283 26.8779C182.459 27.2529 182.688 27.54 182.969 27.7393C183.25 27.9385 183.566 28.085 183.918 28.1787C184.27 28.2607 184.65 28.3076 185.061 28.3193C185.471 28.3193 185.898 28.3193 186.344 28.3193C186.391 28.3076 186.408 28.2842 186.396 28.249C186.396 28.2021 186.426 28.1846 186.484 28.1963C186.766 28.29 186.982 28.4248 187.135 28.6006C187.287 28.7646 187.469 28.9287 187.68 29.0928C187.656 29.5381 187.521 29.9072 187.275 30.2002C187.029 30.4932 186.701 30.7275 186.291 30.9033ZM187.592 23.626C187.674 23.3799 187.803 23.1689 187.979 22.9932C188.166 22.8174 188.365 22.6709 188.576 22.5537C188.799 22.4248 189.027 22.3193 189.262 22.2373C189.496 22.1553 189.719 22.085 189.93 22.0264C190.398 21.8271 190.896 21.6396 191.424 21.4639C191.963 21.2764 192.508 21.1123 193.059 20.9717C193.621 20.8311 194.195 20.7432 194.781 20.708C195.367 20.6611 195.982 20.7314 196.627 20.9189C196.662 21.0361 196.715 21.1475 196.785 21.2529C196.855 21.3584 196.926 21.4639 196.996 21.5693C197.078 21.6748 197.148 21.7803 197.207 21.8857C197.266 21.9795 197.301 22.0791 197.312 22.1846C197.43 22.29 197.523 22.4072 197.594 22.5361C197.664 22.6533 197.676 22.8115 197.629 23.0107C197.512 23.1045 197.395 23.1924 197.277 23.2744C197.172 23.3447 197.055 23.4092 196.926 23.4678C196.492 23.3623 196.053 23.3271 195.607 23.3623C195.162 23.3975 194.764 23.4268 194.412 23.4502C194.307 23.3447 194.178 23.292 194.025 23.292C193.885 23.292 193.732 23.3154 193.568 23.3623C193.416 23.4092 193.258 23.4561 193.094 23.5029C192.941 23.5498 192.795 23.5615 192.654 23.5381C192.537 23.6318 192.391 23.6963 192.215 23.7314C192.051 23.7549 191.869 23.7783 191.67 23.8018C191.658 23.8604 191.67 23.9014 191.705 23.9248C191.74 23.9365 191.746 23.9717 191.723 24.0303C191.793 24.1123 191.881 24.1709 191.986 24.2061C192.104 24.2412 192.221 24.2764 192.338 24.3115C192.467 24.3467 192.578 24.3936 192.672 24.4521C192.766 24.499 192.83 24.5811 192.865 24.6982C193.041 24.6982 193.193 24.7393 193.322 24.8213C193.451 24.9033 193.557 25.0029 193.639 25.1201C193.721 25.2373 193.779 25.3662 193.814 25.5068C193.861 25.6357 193.885 25.7529 193.885 25.8584C193.92 25.9521 193.961 25.9932 194.008 25.9814C194.055 25.9697 194.107 25.9932 194.166 26.0518C194.201 26.2041 194.289 26.3623 194.43 26.5264C194.57 26.6787 194.682 26.8486 194.764 27.0361C194.787 27.3291 194.805 27.5928 194.816 27.8271C194.828 28.0498 194.787 28.2783 194.693 28.5127C194.518 28.9463 194.271 29.333 193.955 29.6729C193.65 30.0127 193.299 30.3174 192.9 30.5869C192.514 30.8447 192.098 31.0674 191.652 31.2549C191.207 31.4424 190.773 31.6006 190.352 31.7295C190.305 31.7178 190.258 31.7178 190.211 31.7295C190.164 31.7412 190.152 31.7119 190.176 31.6416C190.082 31.7236 189.977 31.7764 189.859 31.7998C189.754 31.8232 189.637 31.8291 189.508 31.8174C189.379 31.8174 189.244 31.8115 189.104 31.7998C188.975 31.7881 188.852 31.7939 188.734 31.8174C188.652 31.7354 188.576 31.6533 188.506 31.5713C188.447 31.501 188.4 31.4072 188.365 31.29C188.307 31.29 188.277 31.2607 188.277 31.2021C188.289 31.1436 188.271 31.1143 188.225 31.1143C188.295 30.9971 188.324 30.9326 188.312 30.9209C188.312 30.8975 188.295 30.8799 188.26 30.8682C188.236 30.8564 188.213 30.8447 188.189 30.833C188.166 30.8096 188.16 30.7803 188.172 30.7451C188.219 30.6514 188.236 30.5459 188.225 30.4287C188.213 30.2998 188.201 30.1709 188.189 30.042C188.178 29.9131 188.184 29.79 188.207 29.6729C188.242 29.5557 188.33 29.4619 188.471 29.3916C188.869 29.4385 189.244 29.4268 189.596 29.3564C189.959 29.2744 190.299 29.1631 190.615 29.0225C190.932 28.8818 191.23 28.7295 191.512 28.5654C191.805 28.4014 192.092 28.2549 192.373 28.126C192.408 28.0205 192.455 27.9326 192.514 27.8623C192.584 27.792 192.654 27.7275 192.725 27.6689C192.795 27.6104 192.859 27.5459 192.918 27.4756C192.977 27.4053 193.018 27.3174 193.041 27.2119C193.053 27.1299 193.029 27.083 192.971 27.0713C192.924 27.0479 192.9 27.001 192.9 26.9307L192.707 26.8779C192.484 26.749 192.232 26.6436 191.951 26.5615C191.67 26.4678 191.43 26.3682 191.23 26.2627C191.102 26.333 190.979 26.3506 190.861 26.3154C190.756 26.2803 190.615 26.2451 190.439 26.21C190.041 26.1865 189.654 26.1455 189.279 26.0869C188.916 26.0283 188.564 25.9229 188.225 25.7705C188.201 25.7119 188.172 25.6592 188.137 25.6123C188.102 25.5654 188.037 25.5537 187.943 25.5771C187.873 25.4834 187.803 25.3955 187.732 25.3135C187.662 25.2197 187.598 25.1201 187.539 25.0146C187.562 24.874 187.58 24.7568 187.592 24.6631C187.604 24.5576 187.568 24.458 187.486 24.3643C187.533 24.2119 187.568 24.0889 187.592 23.9951C187.615 23.9014 187.615 23.7783 187.592 23.626Z" fill="white"/>
</svg>
