<svg width="188" height="28" viewBox="0 0 188 28" fill="none" xmlns="http://www.w3.org/2000/svg">
<path d="M1.58203 21.2461C1.46484 21.2461 1.2832 21.2285 1.03711 21.1934C0.849609 20.9941 0.679688 20.7246 0.527344 20.3848C0.386719 20.0332 0.275391 19.6641 0.193359 19.2773C0.123047 18.8789 0.0878906 18.4863 0.0878906 18.0996C0.0996094 17.7012 0.169922 17.3496 0.298828 17.0449C0.298828 17.0332 0.351562 16.8926 0.457031 16.623C0.574219 16.3535 0.720703 16.0137 0.896484 15.6035C1.07227 15.1816 1.27148 14.7188 1.49414 14.2148C1.7168 13.6992 1.93945 13.1953 2.16211 12.7031C2.38477 12.2109 2.5957 11.7656 2.79492 11.3672C3.00586 10.957 3.1875 10.6406 3.33984 10.418C3.44531 10.2539 3.53906 10.0957 3.62109 9.94336C3.71484 9.79102 3.80273 9.65039 3.88477 9.52148C4.01367 9.31055 4.13086 9.11719 4.23633 8.94141C4.35352 8.75391 4.47656 8.58984 4.60547 8.44922C4.74609 8.29688 4.89844 8.16797 5.0625 8.0625C5.22656 7.94531 5.42578 7.8457 5.66016 7.76367C5.80078 7.82227 5.92383 7.88672 6.0293 7.95703C6.13477 8.01562 6.22852 8.0918 6.31055 8.18555L6.36328 8.43164C6.38672 8.51367 6.42188 8.57227 6.46875 8.60742C6.52734 8.63086 6.57422 8.64258 6.60938 8.64258C6.76172 8.67773 6.89062 8.71875 6.99609 8.76562C7.11328 8.80078 7.23633 8.82422 7.36523 8.83594C7.41211 8.90625 7.45312 8.97656 7.48828 9.04688C7.53516 9.11719 7.58203 9.18164 7.62891 9.24023C7.86328 9.58008 8.05664 9.9082 8.20898 10.2246C8.36133 10.541 8.36133 10.8867 8.20898 11.2617L8.22656 11.4551C8.28516 11.5371 8.31445 11.6133 8.31445 11.6836C8.31445 11.7539 8.30273 11.8535 8.2793 11.9824C8.26758 12.0762 8.25586 12.1816 8.24414 12.2988C8.24414 12.4043 8.26172 12.5215 8.29688 12.6504L8.41992 12.791C8.60742 12.8848 8.78906 12.9316 8.96484 12.9316C9.19922 12.9316 9.41016 12.8789 9.59766 12.7734C9.78516 12.668 9.96094 12.5625 10.125 12.457C10.2539 12.3633 10.3711 12.2871 10.4766 12.2285C10.5938 12.1699 10.7051 12.1289 10.8105 12.1055C11.0566 11.8711 11.2793 11.666 11.4785 11.4902C11.6895 11.3027 11.9062 11.1152 12.1289 10.9277C12.5508 10.5879 12.9609 10.2246 13.3594 9.83789C13.7578 9.43945 14.0742 8.94727 14.3086 8.36133C14.4375 8.2793 14.584 8.23828 14.748 8.23828C14.9121 8.23828 15.0762 8.27344 15.2402 8.34375C15.4043 8.40234 15.5684 8.47266 15.7324 8.55469C15.7676 8.57812 15.7969 8.5957 15.8203 8.60742C15.8555 8.61914 15.8906 8.63672 15.9258 8.66016C15.9258 8.78906 15.9785 8.90625 16.084 9.01172C16.1426 9.05859 16.1836 9.08789 16.207 9.09961C16.2305 9.11133 16.2539 9.12305 16.2773 9.13477C16.3711 9.19336 16.4473 9.24609 16.5059 9.29297C16.5762 9.33984 16.6289 9.4043 16.6641 9.48633C16.7695 9.80273 16.9453 10.0488 17.1914 10.2246C17.168 10.3535 17.1738 10.4824 17.209 10.6113C17.2441 10.7285 17.2852 10.8457 17.332 10.9629C17.3555 11.0098 17.373 11.0566 17.3848 11.1035C17.3965 11.1387 17.4141 11.1855 17.4375 11.2441L17.0508 11.209L17.1035 11.5957C17.1387 11.7949 17.1211 12.0176 17.0508 12.2637C16.9922 12.5098 16.9219 12.7031 16.8398 12.8438C16.8633 13.1953 16.875 13.4766 16.875 13.6875C16.875 13.8867 16.8633 14.0742 16.8398 14.25C16.8164 14.4258 16.7754 14.5957 16.7168 14.7598C16.6699 14.9121 16.6055 15.0762 16.5234 15.252C16.5703 16.1426 16.4648 16.957 16.207 17.6953C15.9609 18.4336 15.6914 19.125 15.3984 19.7695C15.3633 19.8516 15.3281 19.9277 15.293 19.998C15.2578 20.0684 15.2285 20.1387 15.2051 20.209C15.0762 20.2441 14.959 20.2852 14.8535 20.332C14.748 20.3789 14.6484 20.4316 14.5547 20.4902C14.4258 20.5723 14.2969 20.6426 14.168 20.7012C14.0391 20.748 13.9043 20.7715 13.7637 20.7715C13.2012 20.3613 12.9082 19.6523 12.8848 18.6445C12.873 17.6367 13.0898 16.3535 13.5352 14.7949C13.6172 14.7363 13.6523 14.6484 13.6406 14.5312V14.3379L13.4648 14.3203C13.4062 14.3203 13.3535 14.3262 13.3066 14.3379C13.2598 14.3496 13.2246 14.4023 13.2012 14.4961C12.8262 14.7656 12.416 15.0469 11.9707 15.3398C11.5371 15.6211 11.0859 15.8848 10.6172 16.1309C10.1484 16.3652 9.66797 16.5645 9.17578 16.7285C8.69531 16.8809 8.22656 16.957 7.76953 16.957C6.59766 16.957 5.71289 16.3594 5.11523 15.1641L4.95703 14.8477L4.78125 15.1289C4.74609 15.1875 4.68164 15.3047 4.58789 15.4805C4.50586 15.6445 4.41797 15.8379 4.32422 16.0605C4.24219 16.2832 4.16602 16.5117 4.0957 16.7461C4.03711 16.9805 4.01953 17.1855 4.04297 17.3613C3.90234 17.4902 3.76172 17.6367 3.62109 17.8008C3.49219 17.9648 3.39844 18.1523 3.33984 18.3633C3.31641 18.4219 3.31055 18.4805 3.32227 18.5391C3.33398 18.5859 3.35156 18.6387 3.375 18.6973C3.36328 18.7793 3.33984 18.8379 3.30469 18.873C3.26953 18.9082 3.22852 18.9434 3.18164 18.9785C3.12305 19.0371 3.06445 19.1016 3.00586 19.1719C2.94727 19.2305 2.89453 19.3008 2.84766 19.3828C2.82422 19.4531 2.80664 19.5293 2.79492 19.6113C2.7832 19.6816 2.77148 19.7461 2.75977 19.8047C2.75977 19.9336 2.74219 20.0215 2.70703 20.0684C2.58984 20.3145 2.48438 20.5195 2.39062 20.6836C2.30859 20.8359 2.22656 20.9531 2.14453 21.0352C2.0625 21.1172 1.97461 21.1699 1.88086 21.1934C1.79883 21.2285 1.69922 21.2461 1.58203 21.2461ZM26.8242 19.5234C26.7539 19.7227 26.6484 19.9277 26.5078 20.1387C26.3789 20.3379 26.2207 20.5195 26.0332 20.6836C25.8574 20.8359 25.6582 20.9648 25.4355 21.0703C25.2129 21.1758 24.9785 21.2344 24.7324 21.2461C24.5801 21.2109 24.4746 21.1699 24.416 21.123C24.3691 21.0879 24.3164 21.0527 24.2578 21.0176C24.2227 20.9941 24.1875 20.9766 24.1523 20.9648C24.1289 20.9414 24.1055 20.9238 24.082 20.9121L23.8711 20.8242L23.9414 20.5957C23.9648 20.502 23.959 20.4316 23.9238 20.3848C23.8887 20.3262 23.8184 20.25 23.7129 20.1562C23.6777 20.1211 23.6426 20.0859 23.6074 20.0508C23.5723 20.0156 23.543 19.9805 23.5195 19.9453L23.2207 19.6113L23.6953 19.4883C23.9883 19.4062 24.1816 19.3008 24.2754 19.1719C24.3809 19.043 24.4219 18.8262 24.3984 18.5215C24.1641 18.4746 23.9648 18.4688 23.8008 18.5039C23.6484 18.5391 23.4902 18.5801 23.3262 18.627C23.1152 18.6855 22.8984 18.7383 22.6758 18.7852C22.4648 18.8203 22.2305 18.8379 21.9727 18.8379C21.8789 18.8379 21.791 18.8379 21.709 18.8379C21.627 18.8262 21.5391 18.8145 21.4453 18.8027L21.2695 18.7676C21.2461 18.6387 21.2227 18.5684 21.1992 18.5566C21.1758 18.5332 21.1523 18.5098 21.1289 18.4863C21.0703 18.4277 21.0059 18.3516 20.9355 18.2578C20.877 18.1523 20.8652 18.0234 20.9004 17.8711C20.8418 17.7656 20.8066 17.6602 20.7949 17.5547C20.7246 17.6953 20.6719 17.8418 20.6367 17.9941L20.5664 18.1699L20.3906 18.2051C20.3672 18.2168 20.3496 18.2461 20.3379 18.293C20.3262 18.3281 20.3203 18.3574 20.3203 18.3809L20.2324 18.6797C20.209 18.7031 20.1855 18.7266 20.1621 18.75C20.1387 18.7617 20.1152 18.7793 20.0918 18.8027C20.0684 18.9082 20.0391 19.0137 20.0039 19.1191C19.9688 19.2246 19.9336 19.3242 19.8984 19.418C19.8398 19.5703 19.7871 19.7227 19.7402 19.875C19.7051 20.0156 19.6934 20.1562 19.7051 20.2969L19.6348 20.4902C19.5762 20.5605 19.5117 20.6191 19.4414 20.666C19.3711 20.7012 19.3008 20.7363 19.2305 20.7715C19.207 20.7949 19.1719 20.8184 19.125 20.8418C19.0898 20.8535 19.0605 20.8652 19.0371 20.877L18.9844 21.0703L18.7734 21.1055C18.6445 21.1289 18.5508 21.1465 18.4922 21.1582C18.4453 21.1699 18.3867 21.1758 18.3164 21.1758L18.1406 21.1582C18.0117 21.0527 17.9121 20.9707 17.8418 20.9121C17.7715 20.8418 17.6895 20.7773 17.5957 20.7188C17.4902 20.5781 17.4316 20.4727 17.4199 20.4023C17.4082 20.332 17.3965 20.2676 17.3848 20.209C17.3613 20.1387 17.3496 20.0801 17.3496 20.0332C17.3379 19.9863 17.3203 19.9512 17.2969 19.9277L17.0684 19.7168L17.2617 19.5586L17.2793 19.2598C17.5137 18.6621 17.7598 18.0879 18.0176 17.5371C18.2871 16.9863 18.5625 16.4238 18.8438 15.8496C18.9375 15.6621 19.0254 15.4746 19.1074 15.2871C19.2012 15.0996 19.2949 14.9121 19.3887 14.7246C19.377 14.6895 19.3711 14.6484 19.3711 14.6016C19.3711 14.5547 19.3828 14.502 19.4062 14.4434C19.5352 14.2441 19.6406 14.0684 19.7227 13.916C19.8047 13.752 19.8867 13.5879 19.9688 13.4238C20.0625 13.2246 20.1562 13.0312 20.25 12.8438C20.3555 12.6562 20.4844 12.4629 20.6367 12.2637L20.918 12.1406C20.9531 12.1289 20.9941 12.1172 21.041 12.1055C21.0879 12.082 21.1406 12.0703 21.1992 12.0703L21.4629 12.1055C21.791 11.9531 22.0781 11.7422 22.3242 11.4727C22.5703 11.1914 22.8223 10.8574 23.0801 10.4707L23.2559 10.2246L23.4844 10.3652C23.543 10.4004 23.625 10.4355 23.7305 10.4707C23.8359 10.4941 23.9473 10.5234 24.0645 10.5586C24.2754 10.6055 24.4746 10.6582 24.6621 10.7168C24.8496 10.7754 25.002 10.8633 25.1191 10.9805C25.1895 11.168 25.2305 11.3086 25.2422 11.4023C25.2539 11.4961 25.2715 11.5898 25.2949 11.6836C25.3301 11.8828 25.3594 12.082 25.3828 12.2812C25.418 12.4805 25.4414 12.7031 25.4531 12.9492C25.5117 13.1484 25.5586 13.3477 25.5938 13.5469C25.6406 13.7344 25.6816 13.9277 25.7168 14.127C25.7754 14.4082 25.834 14.6836 25.8926 14.9531C25.9512 15.2109 26.0273 15.457 26.1211 15.6914C26.2148 15.6914 26.2734 15.6973 26.2969 15.709C26.3555 15.6855 26.4141 15.668 26.4727 15.6562C26.543 15.6445 26.6191 15.6328 26.7012 15.6211L26.8945 15.6035L26.9648 15.7793C26.9766 15.8379 27.0352 15.8965 27.1406 15.9551C27.293 15.9668 27.4043 16.002 27.4746 16.0605C27.5449 16.1074 27.6094 16.1602 27.668 16.2188C27.7148 16.2656 27.7617 16.3008 27.8086 16.3242L28.0723 16.4297L27.9316 16.6934C27.8145 16.9043 27.6445 17.1094 27.4219 17.3086C27.2109 17.4961 26.9707 17.6543 26.7012 17.7832C26.7129 17.8535 26.7188 17.9238 26.7188 17.9941C26.7305 18.0527 26.748 18.1172 26.7715 18.1875C26.8066 18.3867 26.8359 18.5918 26.8594 18.8027C26.8828 19.0137 26.8828 19.2305 26.8594 19.4531L26.8242 19.5234ZM21.7441 16.4824C22.0957 16.459 22.4121 16.4355 22.6934 16.4121C22.9863 16.377 23.3086 16.3242 23.6602 16.2539C23.5781 15.9023 23.4902 15.5391 23.3965 15.1641C23.3027 14.7773 23.2031 14.3965 23.0977 14.0215L22.9922 14.1973C22.7578 14.4434 22.5293 14.7188 22.3066 15.0234C22.0957 15.3281 21.9141 15.6152 21.7617 15.8848C21.6914 15.9902 21.6211 16.0957 21.5508 16.2012C21.4805 16.3066 21.416 16.4121 21.3574 16.5176C21.4277 16.5059 21.4922 16.5 21.5508 16.5C21.6211 16.5 21.6855 16.4941 21.7441 16.4824ZM35.2969 21.0352C35.1094 21.0469 34.875 21.041 34.5938 21.0176C34.3242 20.9941 34.0723 21.0352 33.8379 21.1406C33.2168 21.1172 32.584 21.041 31.9395 20.9121C31.2949 20.7832 30.7031 20.625 30.1641 20.4375C30.0469 20.3086 29.9297 20.1914 29.8125 20.0859C29.6953 19.9688 29.5371 19.8867 29.3379 19.8398C29.0566 19.6172 28.8281 19.3477 28.6523 19.0312C28.4766 18.7031 28.3359 18.3574 28.2305 17.9941C28.125 17.6309 28.0547 17.2617 28.0195 16.8867C27.9844 16.5 27.9727 16.1309 27.9844 15.7793C28.1602 15.252 28.4062 14.8008 28.7227 14.4258C29.0508 14.0391 29.3848 13.6582 29.7246 13.2832C29.877 13.2129 29.9883 13.1426 30.0586 13.0723C30.1406 12.9902 30.2227 12.9199 30.3047 12.8613C30.3984 12.791 30.4863 12.7266 30.5684 12.668C30.6621 12.5977 30.7441 12.5156 30.8145 12.4219C31.0605 12.3633 31.2715 12.2812 31.4473 12.1758C31.6348 12.0586 31.8164 11.9414 31.9922 11.8242C32.168 11.6953 32.3496 11.5781 32.5371 11.4727C32.7246 11.3672 32.9414 11.2852 33.1875 11.2266C33.2812 11.1211 33.3926 11.0391 33.5215 10.9805C33.6504 10.9102 33.7793 10.8457 33.9082 10.7871C34.0488 10.7168 34.1777 10.6465 34.2949 10.5762C34.4238 10.5059 34.5234 10.4121 34.5938 10.2949C34.6523 10.3887 34.7344 10.4238 34.8398 10.4004C34.9453 10.3652 35.0449 10.3301 35.1387 10.2949C35.1973 10.2832 35.2441 10.2949 35.2793 10.3301C35.3262 10.3652 35.3672 10.4004 35.4023 10.4355C35.4375 10.4707 35.4668 10.4941 35.4902 10.5059C35.5254 10.5059 35.5547 10.4766 35.5781 10.418C35.6367 10.418 35.6543 10.4473 35.6309 10.5059C35.6074 10.5645 35.5898 10.6055 35.5781 10.6289C35.6719 10.6172 35.748 10.6406 35.8066 10.6992C35.877 10.7461 35.9824 10.7754 36.123 10.7871C36.1699 10.8457 36.1816 10.8926 36.1582 10.9277C36.1348 10.9512 36.123 10.998 36.123 11.0684C36.4746 11.1738 36.6973 11.3438 36.791 11.5781C36.8848 11.8008 36.8906 12.0352 36.8086 12.2812C36.7266 12.5273 36.5801 12.7559 36.3691 12.9668C36.1582 13.1777 35.9297 13.3184 35.6836 13.3887C35.1211 13.541 34.5879 13.7109 34.084 13.8984C33.5918 14.0742 33.1875 14.3379 32.8711 14.6895C32.5898 14.7715 32.3379 14.8828 32.1152 15.0234C31.9043 15.1523 31.6992 15.3047 31.5 15.4805C31.3125 15.6445 31.1309 15.8203 30.9551 16.0078C30.791 16.1836 30.6152 16.3594 30.4277 16.5352C30.4395 16.6992 30.4102 16.8281 30.3398 16.9219C30.2812 17.0039 30.2227 17.0918 30.1641 17.1855C30.1875 17.3613 30.2285 17.5195 30.2871 17.6602C30.3457 17.7891 30.4102 17.918 30.4805 18.0469C31.2539 18.2812 32.0742 18.4277 32.9414 18.4863C33.8203 18.5449 34.6992 18.5801 35.5781 18.5918C35.6602 18.709 35.7539 18.8203 35.8594 18.9258C35.9766 19.0195 36.082 19.125 36.1758 19.2422C36.2695 19.3477 36.3457 19.4707 36.4043 19.6113C36.4629 19.7402 36.4746 19.9043 36.4395 20.1035C36.2754 20.2793 36.0938 20.4434 35.8945 20.5957C35.6953 20.7363 35.4961 20.8828 35.2969 21.0352ZM47.4785 15.7266C47.4668 15.8672 47.4785 16.002 47.5137 16.1309C47.5488 16.2598 47.5898 16.3887 47.6367 16.5176C47.6953 16.6348 47.748 16.7578 47.7949 16.8867C47.8418 17.0156 47.877 17.1445 47.9004 17.2734C47.9238 17.4375 47.9238 17.6191 47.9004 17.8184C47.877 18.0059 47.8359 18.1934 47.7773 18.3809C47.7188 18.5566 47.6426 18.7207 47.5488 18.873C47.4551 19.0137 47.3438 19.1191 47.2148 19.1895C47.0508 19.4004 46.8516 19.5645 46.6172 19.6816C46.3828 19.7988 46.166 19.9395 45.9668 20.1035C45.8379 20.1855 45.6914 20.2441 45.5273 20.2793C45.375 20.3145 45.2168 20.3496 45.0527 20.3848C44.9238 20.4551 44.7715 20.5312 44.5957 20.6133C44.4199 20.6836 44.2383 20.7539 44.0508 20.8242C43.8633 20.8828 43.6758 20.9297 43.4883 20.9648C43.3008 20.9883 43.1367 20.9941 42.9961 20.9824C42.6445 21.1113 42.2988 21.1934 41.959 21.2285C41.6309 21.2754 41.2441 21.252 40.7988 21.1582C40.377 21.2168 39.9844 21.1992 39.6211 21.1055C39.2695 21.0117 38.9531 20.8652 38.6719 20.666C38.4023 20.4551 38.1621 20.209 37.9512 19.9277C37.752 19.6348 37.5879 19.3301 37.459 19.0137C37.3652 18.3457 37.3887 17.7422 37.5293 17.2031C37.6699 16.6523 37.8691 16.1484 38.127 15.6914C38.3965 15.2227 38.7012 14.7949 39.041 14.4082C39.3809 14.0098 39.709 13.623 40.0254 13.248C40.0957 13.2715 40.1484 13.2715 40.1836 13.248C40.2305 13.2129 40.2715 13.1719 40.3066 13.125C40.3418 13.0664 40.377 13.0137 40.4121 12.9668C40.459 12.9199 40.5117 12.8906 40.5703 12.8789C40.6523 12.7031 40.7695 12.5742 40.9219 12.4922C41.0859 12.3984 41.2148 12.2695 41.3086 12.1055C41.4141 12.082 41.502 12.0469 41.5723 12C41.6426 11.9531 41.707 11.9004 41.7656 11.8418C41.8359 11.7832 41.9062 11.7305 41.9766 11.6836C42.0469 11.625 42.1289 11.584 42.2227 11.5605V11.3672C42.4336 11.2734 42.5859 11.168 42.6797 11.0508C42.7852 10.9219 42.9082 10.7695 43.0488 10.5938C43.1543 10.582 43.2363 10.5762 43.2949 10.5762C43.3652 10.5762 43.4648 10.5645 43.5938 10.541C43.6875 10.377 43.7695 10.2539 43.8398 10.1719C43.9219 10.0898 44.0391 10.002 44.1914 9.9082C44.332 9.97852 44.4844 10.0254 44.6484 10.0488C44.8242 10.0723 44.9766 10.1484 45.1055 10.2773C45.1172 10.3945 45.1523 10.4883 45.2109 10.5586C45.2695 10.6172 45.334 10.6758 45.4043 10.7344C45.4746 10.7812 45.5391 10.834 45.5977 10.8926C45.668 10.9512 45.7148 11.0332 45.7383 11.1387C45.7852 11.1504 45.8145 11.1445 45.8262 11.1211C45.8496 11.0977 45.8848 11.0918 45.9316 11.1035C45.9668 11.2676 46.0078 11.3789 46.0547 11.4375C46.1016 11.4844 46.1484 11.584 46.1953 11.7363C46.1367 11.8535 46.0898 11.9766 46.0547 12.1055C46.0312 12.2227 45.9609 12.3105 45.8438 12.3691C45.832 12.4512 45.8555 12.498 45.9141 12.5098C45.9727 12.5098 46.0078 12.5391 46.0195 12.5977C46.0312 12.7031 46.0137 12.7793 45.9668 12.8262C46.248 13.2832 46.5 13.7695 46.7227 14.2852C46.9453 14.7891 47.1973 15.2695 47.4785 15.7266ZM45.2812 17.3965C45.3281 17.2676 45.3867 17.1621 45.457 17.0801C45.5391 16.998 45.5859 16.875 45.5977 16.7109C45.5391 16.6172 45.5039 16.5469 45.4922 16.5C45.4805 16.4414 45.4746 16.3535 45.4746 16.2363C45.2168 15.873 44.9941 15.4863 44.8066 15.0762C44.6191 14.6543 44.4082 14.2617 44.1738 13.8984C44.1504 13.9453 44.1094 13.9922 44.0508 14.0391C43.9922 14.0859 43.9277 14.0742 43.8574 14.0039C43.834 14.0977 43.793 14.168 43.7344 14.2148C43.6758 14.25 43.6113 14.2676 43.541 14.2676C43.4707 14.2559 43.3945 14.2383 43.3125 14.2148C43.2422 14.1797 43.1777 14.1387 43.1191 14.0918C42.7793 14.3613 42.4395 14.625 42.0996 14.8828C41.7598 15.1406 41.4551 15.4395 41.1855 15.7793C41.1387 15.8027 41.1094 15.8145 41.0977 15.8145C41.0859 15.8027 41.0508 15.8086 40.9922 15.832C40.8984 16.0547 40.7812 16.2598 40.6406 16.4473C40.5117 16.623 40.3828 16.8047 40.2539 16.9922C40.125 17.1797 40.0137 17.3789 39.9199 17.5898C39.8262 17.8008 39.7734 18.0469 39.7617 18.3281C39.9609 18.4922 40.1953 18.5918 40.4648 18.627C40.7344 18.6621 41.0098 18.668 41.291 18.6445C41.584 18.6211 41.8652 18.5859 42.1348 18.5391C42.416 18.4805 42.6738 18.4512 42.9082 18.4512C43.4004 18.334 43.8223 18.1816 44.1738 17.9941C44.5254 17.7949 44.8945 17.5957 45.2812 17.3965ZM52.1543 17.8008C52.0488 17.8242 51.9727 17.8887 51.9258 17.9941C51.8789 18.0879 51.832 18.1875 51.7852 18.293C51.75 18.3984 51.709 18.498 51.6621 18.5918C51.627 18.6738 51.5684 18.7148 51.4863 18.7148C51.4746 18.8086 51.4395 18.8906 51.3809 18.9609C51.334 19.0312 51.2871 19.1074 51.2402 19.1895C51.1934 19.2598 51.1582 19.3418 51.1348 19.4355C51.1113 19.5176 51.123 19.6172 51.1699 19.7344C51.0762 19.8047 51.0176 19.9043 50.9941 20.0332C50.9707 20.1621 50.9414 20.2852 50.9062 20.4023C50.8828 20.5195 50.8359 20.6191 50.7656 20.7012C50.6953 20.7832 50.5664 20.8184 50.3789 20.8066C50.3438 20.8535 50.3379 20.8828 50.3613 20.8945C50.3848 20.9062 50.4023 20.9473 50.4141 21.0176C50.2852 20.9941 50.1855 21 50.1152 21.0352C50.0566 21.082 49.9805 21.1113 49.8867 21.123C49.6641 21.0527 49.4766 20.9297 49.3242 20.7539C49.1836 20.5781 49.0547 20.3848 48.9375 20.1738C48.832 19.9512 48.7324 19.7285 48.6387 19.5059C48.5566 19.2832 48.4746 19.0898 48.3926 18.9258C48.4277 18.7969 48.4336 18.6738 48.4102 18.5566C48.3867 18.4277 48.3457 18.3223 48.2871 18.2402C48.8613 17.0215 49.4883 15.7207 50.168 14.3379C50.8477 12.9551 51.4922 11.5898 52.1016 10.2422C52.3711 10.3477 52.6348 10.4707 52.8926 10.6113C53.1621 10.7402 53.4023 10.8926 53.6133 11.0684C53.8359 11.2441 54.0234 11.4492 54.1758 11.6836C54.3281 11.9062 54.4277 12.1582 54.4746 12.4395C54.4512 12.5098 54.4219 12.5391 54.3867 12.5273C54.3633 12.5039 54.3398 12.5098 54.3164 12.5449C54.3633 12.6035 54.3867 12.6445 54.3867 12.668C54.3984 12.6914 54.3984 12.7148 54.3867 12.7383C54.3867 12.7617 54.3867 12.7969 54.3867 12.8438C54.3867 12.8789 54.4043 12.9316 54.4395 13.002C54.3926 12.9902 54.3574 12.9961 54.334 13.0195C54.3223 13.043 54.2871 13.043 54.2285 13.0195C54.2754 13.1484 54.2871 13.2539 54.2637 13.3359C54.252 13.418 54.2285 13.4941 54.1934 13.5645C54.1582 13.623 54.1289 13.6934 54.1055 13.7754C54.082 13.8457 54.0879 13.9395 54.123 14.0566C54.0879 14.0566 54.0586 14.0684 54.0352 14.0918C54.0234 14.1035 54.0117 14.1211 54 14.1445C53.9883 14.1562 53.9707 14.1738 53.9473 14.1973C53.9355 14.209 53.9121 14.209 53.877 14.1973C53.9121 14.4551 53.9238 14.7129 53.9121 14.9707C53.9004 15.2285 53.8887 15.4922 53.877 15.7617C53.877 16.0195 53.8828 16.2949 53.8945 16.5879C53.9062 16.8691 53.9473 17.1621 54.0176 17.4668C54.4395 17.2207 54.7734 16.9043 55.0195 16.5176C55.2773 16.1309 55.4824 15.6973 55.6348 15.2168C55.7988 14.7363 55.9219 14.2207 56.0039 13.6699C56.0859 13.1191 56.1738 12.5566 56.2676 11.9824C56.373 11.877 56.4551 11.748 56.5137 11.5957C56.5723 11.4434 56.625 11.2852 56.6719 11.1211C56.7188 10.9453 56.7656 10.7754 56.8125 10.6113C56.8594 10.4355 56.918 10.2773 56.9883 10.1367C57.1641 10.1602 57.3105 10.2188 57.4277 10.3125C57.5566 10.3945 57.6738 10.4883 57.7793 10.5938C57.8848 10.6875 57.9961 10.7812 58.1133 10.875C58.2305 10.957 58.377 11.0098 58.5527 11.0332C58.6934 11.2324 58.8223 11.4258 58.9395 11.6133C59.0566 11.8008 59.1328 12 59.168 12.2109C59.1094 12.3047 59.0625 12.4102 59.0273 12.5273C59.0039 12.6445 58.9746 12.7617 58.9395 12.8789C58.9043 12.9961 58.8574 13.1074 58.7988 13.2129C58.7402 13.3066 58.6582 13.3887 58.5527 13.459C58.5176 13.7637 58.4707 14.0449 58.4121 14.3027C58.3652 14.5488 58.3125 14.7949 58.2539 15.041C58.207 15.2871 58.166 15.5449 58.1309 15.8145C58.0957 16.0723 58.084 16.3594 58.0957 16.6758C58.002 16.9453 57.9023 17.2324 57.7969 17.5371C57.6914 17.8418 57.6094 18.1172 57.5508 18.3633C57.3633 18.5156 57.2168 18.6973 57.1113 18.9082C57.0059 19.1191 56.8945 19.3301 56.7773 19.541C56.7305 19.5879 56.7012 19.5996 56.6895 19.5762C56.6777 19.5527 56.6367 19.5352 56.5664 19.5234C56.5781 19.5703 56.5781 19.6055 56.5664 19.6289C56.5547 19.6523 56.5371 19.6758 56.5137 19.6992C56.502 19.7109 56.4902 19.7344 56.4785 19.7695C56.4785 19.8047 56.4902 19.8516 56.5137 19.9102C56.3496 19.9805 56.2031 20.0801 56.0742 20.209C55.9453 20.3379 55.8047 20.4551 55.6523 20.5605C55.5117 20.666 55.3359 20.7363 55.125 20.7715C54.9258 20.8066 54.6621 20.7656 54.334 20.6484C53.8535 20.2969 53.4258 19.8926 53.0508 19.4355C52.6875 18.9785 52.3887 18.4336 52.1543 17.8008ZM66.9551 21.2461C66.8379 21.2461 66.6562 21.2285 66.4102 21.1934C66.2227 20.9941 66.0527 20.7246 65.9004 20.3848C65.7598 20.0332 65.6484 19.6641 65.5664 19.2773C65.4961 18.8789 65.4609 18.4863 65.4609 18.0996C65.4727 17.7012 65.543 17.3496 65.6719 17.0449C65.6719 17.0332 65.7246 16.8926 65.8301 16.623C65.9473 16.3535 66.0938 16.0137 66.2695 15.6035C66.4453 15.1816 66.6445 14.7188 66.8672 14.2148C67.0898 13.6992 67.3125 13.1953 67.5352 12.7031C67.7578 12.2109 67.9688 11.7656 68.168 11.3672C68.3789 10.957 68.5605 10.6406 68.7129 10.418C68.8184 10.2539 68.9121 10.0957 68.9941 9.94336C69.0879 9.79102 69.1758 9.65039 69.2578 9.52148C69.3867 9.31055 69.5039 9.11719 69.6094 8.94141C69.7266 8.75391 69.8496 8.58984 69.9785 8.44922C70.1191 8.29688 70.2715 8.16797 70.4355 8.0625C70.5996 7.94531 70.7988 7.8457 71.0332 7.76367C71.1738 7.82227 71.2969 7.88672 71.4023 7.95703C71.5078 8.01562 71.6016 8.0918 71.6836 8.18555L71.7363 8.43164C71.7598 8.51367 71.7949 8.57227 71.8418 8.60742C71.9004 8.63086 71.9473 8.64258 71.9824 8.64258C72.1348 8.67773 72.2637 8.71875 72.3691 8.76562C72.4863 8.80078 72.6094 8.82422 72.7383 8.83594C72.7852 8.90625 72.8262 8.97656 72.8613 9.04688C72.9082 9.11719 72.9551 9.18164 73.002 9.24023C73.2363 9.58008 73.4297 9.9082 73.582 10.2246C73.7344 10.541 73.7344 10.8867 73.582 11.2617L73.5996 11.4551C73.6582 11.5371 73.6875 11.6133 73.6875 11.6836C73.6875 11.7539 73.6758 11.8535 73.6523 11.9824C73.6406 12.0762 73.6289 12.1816 73.6172 12.2988C73.6172 12.4043 73.6348 12.5215 73.6699 12.6504L73.793 12.791C73.9805 12.8848 74.1621 12.9316 74.3379 12.9316C74.5723 12.9316 74.7832 12.8789 74.9707 12.7734C75.1582 12.668 75.334 12.5625 75.498 12.457C75.627 12.3633 75.7441 12.2871 75.8496 12.2285C75.9668 12.1699 76.0781 12.1289 76.1836 12.1055C76.4297 11.8711 76.6523 11.666 76.8516 11.4902C77.0625 11.3027 77.2793 11.1152 77.502 10.9277C77.9238 10.5879 78.334 10.2246 78.7324 9.83789C79.1309 9.43945 79.4473 8.94727 79.6816 8.36133C79.8105 8.2793 79.957 8.23828 80.1211 8.23828C80.2852 8.23828 80.4492 8.27344 80.6133 8.34375C80.7773 8.40234 80.9414 8.47266 81.1055 8.55469C81.1406 8.57812 81.1699 8.5957 81.1934 8.60742C81.2285 8.61914 81.2637 8.63672 81.2988 8.66016C81.2988 8.78906 81.3516 8.90625 81.457 9.01172C81.5156 9.05859 81.5566 9.08789 81.5801 9.09961C81.6035 9.11133 81.627 9.12305 81.6504 9.13477C81.7441 9.19336 81.8203 9.24609 81.8789 9.29297C81.9492 9.33984 82.002 9.4043 82.0371 9.48633C82.1426 9.80273 82.3184 10.0488 82.5645 10.2246C82.541 10.3535 82.5469 10.4824 82.582 10.6113C82.6172 10.7285 82.6582 10.8457 82.7051 10.9629C82.7285 11.0098 82.7461 11.0566 82.7578 11.1035C82.7695 11.1387 82.7871 11.1855 82.8105 11.2441L82.4238 11.209L82.4766 11.5957C82.5117 11.7949 82.4941 12.0176 82.4238 12.2637C82.3652 12.5098 82.2949 12.7031 82.2129 12.8438C82.2363 13.1953 82.248 13.4766 82.248 13.6875C82.248 13.8867 82.2363 14.0742 82.2129 14.25C82.1895 14.4258 82.1484 14.5957 82.0898 14.7598C82.043 14.9121 81.9785 15.0762 81.8965 15.252C81.9434 16.1426 81.8379 16.957 81.5801 17.6953C81.334 18.4336 81.0645 19.125 80.7715 19.7695C80.7363 19.8516 80.7012 19.9277 80.666 19.998C80.6309 20.0684 80.6016 20.1387 80.5781 20.209C80.4492 20.2441 80.332 20.2852 80.2266 20.332C80.1211 20.3789 80.0215 20.4316 79.9277 20.4902C79.7988 20.5723 79.6699 20.6426 79.541 20.7012C79.4121 20.748 79.2773 20.7715 79.1367 20.7715C78.5742 20.3613 78.2812 19.6523 78.2578 18.6445C78.2461 17.6367 78.4629 16.3535 78.9082 14.7949C78.9902 14.7363 79.0254 14.6484 79.0137 14.5312V14.3379L78.8379 14.3203C78.7793 14.3203 78.7266 14.3262 78.6797 14.3379C78.6328 14.3496 78.5977 14.4023 78.5742 14.4961C78.1992 14.7656 77.7891 15.0469 77.3438 15.3398C76.9102 15.6211 76.459 15.8848 75.9902 16.1309C75.5215 16.3652 75.041 16.5645 74.5488 16.7285C74.0684 16.8809 73.5996 16.957 73.1426 16.957C71.9707 16.957 71.0859 16.3594 70.4883 15.1641L70.3301 14.8477L70.1543 15.1289C70.1191 15.1875 70.0547 15.3047 69.9609 15.4805C69.8789 15.6445 69.791 15.8379 69.6973 16.0605C69.6152 16.2832 69.5391 16.5117 69.4688 16.7461C69.4102 16.9805 69.3926 17.1855 69.416 17.3613C69.2754 17.4902 69.1348 17.6367 68.9941 17.8008C68.8652 17.9648 68.7715 18.1523 68.7129 18.3633C68.6895 18.4219 68.6836 18.4805 68.6953 18.5391C68.707 18.5859 68.7246 18.6387 68.748 18.6973C68.7363 18.7793 68.7129 18.8379 68.6777 18.873C68.6426 18.9082 68.6016 18.9434 68.5547 18.9785C68.4961 19.0371 68.4375 19.1016 68.3789 19.1719C68.3203 19.2305 68.2676 19.3008 68.2207 19.3828C68.1973 19.4531 68.1797 19.5293 68.168 19.6113C68.1562 19.6816 68.1445 19.7461 68.1328 19.8047C68.1328 19.9336 68.1152 20.0215 68.0801 20.0684C67.9629 20.3145 67.8574 20.5195 67.7637 20.6836C67.6816 20.8359 67.5996 20.9531 67.5176 21.0352C67.4355 21.1172 67.3477 21.1699 67.2539 21.1934C67.1719 21.2285 67.0723 21.2461 66.9551 21.2461ZM92.707 11.1035C92.7188 11.1855 92.7188 11.25 92.707 11.2969C92.707 11.332 92.7012 11.3672 92.6895 11.4023C92.6895 11.4375 92.6895 11.4785 92.6895 11.5254C92.6895 11.5605 92.7012 11.6191 92.7246 11.7012C92.4785 12.0996 92.1914 12.375 91.8633 12.5273C91.5469 12.668 91.2012 12.7734 90.8262 12.8438C90.4512 12.9023 90.0645 12.9668 89.666 13.0371C89.2793 13.1074 88.8926 13.2598 88.5059 13.4941C88.3535 13.4355 88.2129 13.4355 88.084 13.4941C87.9668 13.5527 87.791 13.5703 87.5566 13.5469C87.4863 13.6172 87.3984 13.6699 87.293 13.7051C87.1875 13.7285 87.082 13.7578 86.9766 13.793C87.0234 13.8984 87.041 14.0098 87.0293 14.127C87.0293 14.2324 87.0469 14.3203 87.082 14.3906C87.4922 14.4258 87.9434 14.4199 88.4355 14.373C88.9395 14.3262 89.4316 14.2969 89.9121 14.2852C89.9238 14.3438 89.918 14.3848 89.8945 14.4082C89.8711 14.4199 89.8652 14.4492 89.877 14.4961C89.959 14.5547 90.041 14.6309 90.123 14.7246C90.2051 14.8066 90.2871 14.8887 90.3691 14.9707C90.4512 15.0527 90.5332 15.123 90.6152 15.1816C90.709 15.2285 90.8145 15.2461 90.9316 15.2344C90.9785 15.3281 91.0078 15.4336 91.0195 15.5508C91.043 15.6562 91.0312 15.7676 90.9844 15.8848C90.7969 16.0137 90.6094 16.1484 90.4219 16.2891C90.2344 16.418 90.0352 16.5352 89.8242 16.6406C89.625 16.7461 89.4082 16.834 89.1738 16.9043C88.9512 16.9629 88.6992 16.9863 88.418 16.9746C88.3594 16.9746 88.3125 16.9746 88.2773 16.9746C88.2539 16.9746 88.2188 16.957 88.1719 16.9219C88.0781 16.9805 87.9434 16.998 87.7676 16.9746C87.6035 16.9512 87.4746 16.9688 87.3809 17.0273C87.252 16.9688 87.0938 16.9453 86.9062 16.957C86.7305 16.957 86.5723 16.9336 86.4316 16.8867C86.2441 17.1328 86.0742 17.3965 85.9219 17.6777C85.7695 17.959 85.6348 18.2578 85.5176 18.5742C85.916 18.6328 86.2441 18.6562 86.502 18.6445C86.7715 18.6328 87.0234 18.6152 87.2578 18.5918C87.4922 18.5566 87.7324 18.5273 87.9785 18.5039C88.2246 18.4688 88.5352 18.457 88.9102 18.4688C89.1445 18.3398 89.4199 18.2578 89.7363 18.2227C90.0645 18.1758 90.3633 18.1055 90.6328 18.0117C90.7266 18.0469 90.8086 18.1113 90.8789 18.2051C90.9492 18.2871 91.0137 18.3691 91.0723 18.4512C91.1426 18.5215 91.2129 18.5859 91.2832 18.6445C91.3535 18.7031 91.4414 18.7266 91.5469 18.7148C91.5938 18.7617 91.623 18.8203 91.6348 18.8906C91.6582 18.9492 91.6758 19.0078 91.6875 19.0664C91.6992 19.125 91.7168 19.1777 91.7402 19.2246C91.7754 19.2598 91.8281 19.2715 91.8984 19.2598C91.7227 19.6465 91.5176 19.9453 91.2832 20.1562C91.0605 20.3555 90.8027 20.5078 90.5098 20.6133C90.2168 20.7188 89.8887 20.8008 89.5254 20.8594C89.1738 20.918 88.7812 20.9883 88.3477 21.0703C88.2422 21.0938 88.1543 21.0879 88.084 21.0527C88.0137 21.0293 87.9316 21.0176 87.8379 21.0176C87.5684 21.0762 87.2461 21.1289 86.8711 21.1758C86.4961 21.2227 86.1152 21.2402 85.7285 21.2285C85.3418 21.2168 84.9727 21.1641 84.6211 21.0703C84.2695 20.9883 83.9824 20.8359 83.7598 20.6133C83.666 20.5312 83.6016 20.4375 83.5664 20.332C83.543 20.2148 83.4668 20.127 83.3379 20.0684C83.3262 19.916 83.3027 19.7461 83.2676 19.5586C83.2324 19.3711 83.1973 19.1777 83.1621 18.9785C83.127 18.7676 83.0977 18.5625 83.0742 18.3633C83.0625 18.1641 83.0742 17.9824 83.1094 17.8184C83.1445 17.6426 83.2148 17.4844 83.3203 17.3438C83.4375 17.2031 83.4785 17.0508 83.4434 16.8867C83.502 16.875 83.5371 16.8457 83.5488 16.7988C83.5605 16.7402 83.6074 16.7168 83.6895 16.7285C83.7598 16.5176 83.8359 16.3184 83.918 16.1309C84 15.9434 84.082 15.7617 84.1641 15.5859C84.2578 15.4102 84.3457 15.2344 84.4277 15.0586C84.5215 14.8711 84.6094 14.666 84.6914 14.4434C84.5273 14.291 84.4043 14.127 84.3223 13.9512C84.252 13.7637 84.1992 13.582 84.1641 13.4062C84.1289 13.2188 84.0996 13.0312 84.0762 12.8438C84.0527 12.6445 84.0117 12.4453 83.9531 12.2461C84.0703 12.0703 84.2109 11.9297 84.375 11.8242C84.5508 11.707 84.7383 11.6133 84.9375 11.543C85.1367 11.4727 85.3535 11.4141 85.5879 11.3672C85.8223 11.3203 86.0684 11.2676 86.3262 11.209C86.7949 11.0566 87.2109 10.9395 87.5742 10.8574C87.9492 10.7754 88.3125 10.7109 88.6641 10.6641C89.0273 10.6055 89.4023 10.5527 89.7891 10.5059C90.1758 10.459 90.6152 10.3887 91.1074 10.2949C91.2129 10.4004 91.3125 10.4531 91.4062 10.4531C91.4531 10.3477 91.5059 10.3184 91.5645 10.3652C91.6348 10.4004 91.6641 10.3652 91.6523 10.2598C91.7695 10.459 91.916 10.6289 92.0918 10.7695C92.2793 10.8984 92.4844 11.0098 92.707 11.1035ZM102.287 12.5449C101.994 12.5449 101.678 12.5684 101.338 12.6152C100.998 12.6504 100.664 12.6914 100.336 12.7383C100.102 12.7734 99.873 12.8027 99.6504 12.8262C99.4395 12.8496 99.2461 12.8672 99.0703 12.8789C98.9883 13.1367 98.9062 13.3652 98.8242 13.5645C98.7422 13.7637 98.6543 13.957 98.5605 14.1445C98.4668 14.3438 98.3789 14.5488 98.2969 14.7598C98.2266 14.959 98.1562 15.1758 98.0859 15.4102C97.9688 15.5977 97.8691 15.7734 97.7871 15.9375C97.7168 16.0898 97.6582 16.2656 97.6113 16.4648C97.4707 16.6406 97.3652 16.8281 97.2949 17.0273C97.2246 17.2148 97.1719 17.3789 97.1367 17.5195L97.0664 17.7305C96.9961 17.8008 96.9551 17.8594 96.9434 17.9062C96.9316 17.9414 96.9023 17.9766 96.8555 18.0117C96.8438 18.1406 96.8027 18.2695 96.7324 18.3984C96.709 18.457 96.6914 18.5156 96.6797 18.5742C96.668 18.6211 96.6621 18.6562 96.6621 18.6797C96.6621 18.7969 96.6328 18.873 96.5742 18.9082C96.5859 18.9668 96.5859 19.0312 96.5742 19.1016C96.5625 19.1602 96.5508 19.2188 96.5391 19.2773C96.5039 19.418 96.4922 19.5293 96.5039 19.6113C96.5391 19.6582 96.5684 19.6992 96.5918 19.7344C96.627 19.7695 96.6504 19.8164 96.6621 19.875C96.7324 19.9219 96.7852 19.9512 96.8203 19.9629C96.8672 19.998 96.9375 20.0391 97.0312 20.0859L97.1895 20.2617C97.248 20.6016 97.1953 20.8711 97.0312 21.0703C96.8555 21.293 96.5566 21.4043 96.1348 21.4043H95.9238C95.8652 21.3457 95.8301 21.2988 95.8184 21.2637C95.7246 21.2285 95.6484 21.1992 95.5898 21.1758C95.5312 21.1523 95.4785 21.1055 95.4316 21.0352C95.2793 20.9648 95.1562 20.9062 95.0625 20.8594L94.9043 20.7715C94.9043 20.6426 94.9043 20.5723 94.9043 20.5605C94.8223 20.4551 94.7578 20.3379 94.7109 20.209C94.6758 20.0801 94.6465 19.9512 94.623 19.8223C94.5996 19.7168 94.5703 19.6172 94.5352 19.5234C94.5117 19.4297 94.4766 19.3477 94.4297 19.2773C94.4062 18.5977 94.4707 18.0234 94.623 17.5547C94.7754 17.0859 94.9336 16.6348 95.0977 16.2012C95.1914 15.9668 95.2852 15.7324 95.3789 15.498C95.4727 15.252 95.5547 15 95.625 14.7422L95.7832 14.5664C95.8652 14.3789 95.9297 14.2266 95.9766 14.1094C96.0352 13.9805 96.0938 13.8516 96.1523 13.7227C96.1875 13.6406 96.2168 13.5645 96.2402 13.4941C96.2754 13.4121 96.3047 13.3418 96.3281 13.2832C96.2578 13.2832 96.1934 13.2891 96.1348 13.3008C96.0762 13.3008 96.0176 13.3066 95.959 13.3184C95.8887 13.3301 95.8242 13.3418 95.7656 13.3535C95.707 13.3535 95.6484 13.3535 95.5898 13.3535C95.5078 13.3535 95.4492 13.3477 95.4141 13.3359C95.2852 13.3945 95.1445 13.4238 94.9922 13.4238H94.8164C94.7812 13.4238 94.7461 13.4238 94.7109 13.4238C94.6875 13.4121 94.6641 13.4062 94.6406 13.4062C94.5234 13.4062 94.4297 13.4238 94.3594 13.459C94.2188 13.459 94.084 13.459 93.9551 13.459H93.7793C93.7559 13.459 93.7266 13.4648 93.6914 13.4766C93.6562 13.4766 93.627 13.4766 93.6035 13.4766C93.5215 13.4766 93.4336 13.4707 93.3398 13.459C93.2461 13.4355 93.1465 13.3945 93.041 13.3359C92.9004 13.1484 92.8066 13.0488 92.7598 13.0371L92.6016 12.8262C92.5898 12.7559 92.5723 12.6914 92.5488 12.6328C92.5254 12.5625 92.502 12.4863 92.4785 12.4043C92.4316 12.2871 92.3848 12.1641 92.3379 12.0352C92.3027 11.8945 92.2852 11.7305 92.2852 11.543C92.2969 11.4492 92.3203 11.3789 92.3555 11.332C92.3906 11.2852 92.4199 11.2441 92.4434 11.209L92.4961 10.9453L92.7246 10.9629H93.2168C93.5918 10.9629 93.9727 10.9512 94.3594 10.9277C94.7461 10.8926 95.1445 10.8574 95.5547 10.8223C95.7891 10.7988 96.0234 10.7754 96.2578 10.752C96.5039 10.7285 96.7559 10.7051 97.0137 10.6816C97.0605 10.5762 97.1074 10.4766 97.1543 10.3828L97.3301 10.2949C97.541 10.2832 97.6875 10.3125 97.7695 10.3828C97.8633 10.4414 97.9395 10.5 97.998 10.5586C98.2559 10.5352 98.5137 10.5117 98.7715 10.4883C99.041 10.4531 99.3105 10.4121 99.5801 10.3652C99.9785 10.3066 100.377 10.2539 100.775 10.207C101.186 10.1602 101.578 10.1367 101.953 10.1367C102.117 10.1367 102.275 10.1426 102.428 10.1543C102.58 10.166 102.721 10.1836 102.85 10.207L103.025 10.3301C103.061 10.4004 103.107 10.4648 103.166 10.5234C103.236 10.582 103.307 10.6406 103.377 10.6992C103.518 10.8281 103.658 10.9805 103.799 11.1562C103.939 11.332 103.992 11.5898 103.957 11.9297C103.863 12.0703 103.793 12.1523 103.746 12.1758L103.588 12.3867L103.412 12.3691C103.342 12.3691 103.277 12.3809 103.219 12.4043C103.16 12.416 103.102 12.4336 103.043 12.457C102.996 12.4805 102.949 12.5039 102.902 12.5273C102.855 12.5391 102.803 12.5508 102.744 12.5625C102.639 12.5625 102.551 12.5625 102.48 12.5625C102.422 12.5508 102.357 12.5449 102.287 12.5449ZM109.318 19.5234C109.248 19.7227 109.143 19.9277 109.002 20.1387C108.873 20.3379 108.715 20.5195 108.527 20.6836C108.352 20.8359 108.152 20.9648 107.93 21.0703C107.707 21.1758 107.473 21.2344 107.227 21.2461C107.074 21.2109 106.969 21.1699 106.91 21.123C106.863 21.0879 106.811 21.0527 106.752 21.0176C106.717 20.9941 106.682 20.9766 106.646 20.9648C106.623 20.9414 106.6 20.9238 106.576 20.9121L106.365 20.8242L106.436 20.5957C106.459 20.502 106.453 20.4316 106.418 20.3848C106.383 20.3262 106.312 20.25 106.207 20.1562C106.172 20.1211 106.137 20.0859 106.102 20.0508C106.066 20.0156 106.037 19.9805 106.014 19.9453L105.715 19.6113L106.189 19.4883C106.482 19.4062 106.676 19.3008 106.77 19.1719C106.875 19.043 106.916 18.8262 106.893 18.5215C106.658 18.4746 106.459 18.4688 106.295 18.5039C106.143 18.5391 105.984 18.5801 105.82 18.627C105.609 18.6855 105.393 18.7383 105.17 18.7852C104.959 18.8203 104.725 18.8379 104.467 18.8379C104.373 18.8379 104.285 18.8379 104.203 18.8379C104.121 18.8262 104.033 18.8145 103.939 18.8027L103.764 18.7676C103.74 18.6387 103.717 18.5684 103.693 18.5566C103.67 18.5332 103.646 18.5098 103.623 18.4863C103.564 18.4277 103.5 18.3516 103.43 18.2578C103.371 18.1523 103.359 18.0234 103.395 17.8711C103.336 17.7656 103.301 17.6602 103.289 17.5547C103.219 17.6953 103.166 17.8418 103.131 17.9941L103.061 18.1699L102.885 18.2051C102.861 18.2168 102.844 18.2461 102.832 18.293C102.82 18.3281 102.814 18.3574 102.814 18.3809L102.727 18.6797C102.703 18.7031 102.68 18.7266 102.656 18.75C102.633 18.7617 102.609 18.7793 102.586 18.8027C102.562 18.9082 102.533 19.0137 102.498 19.1191C102.463 19.2246 102.428 19.3242 102.393 19.418C102.334 19.5703 102.281 19.7227 102.234 19.875C102.199 20.0156 102.188 20.1562 102.199 20.2969L102.129 20.4902C102.07 20.5605 102.006 20.6191 101.936 20.666C101.865 20.7012 101.795 20.7363 101.725 20.7715C101.701 20.7949 101.666 20.8184 101.619 20.8418C101.584 20.8535 101.555 20.8652 101.531 20.877L101.479 21.0703L101.268 21.1055C101.139 21.1289 101.045 21.1465 100.986 21.1582C100.939 21.1699 100.881 21.1758 100.811 21.1758L100.635 21.1582C100.506 21.0527 100.406 20.9707 100.336 20.9121C100.266 20.8418 100.184 20.7773 100.09 20.7188C99.9844 20.5781 99.9258 20.4727 99.9141 20.4023C99.9023 20.332 99.8906 20.2676 99.8789 20.209C99.8555 20.1387 99.8438 20.0801 99.8438 20.0332C99.832 19.9863 99.8145 19.9512 99.791 19.9277L99.5625 19.7168L99.7559 19.5586L99.7734 19.2598C100.008 18.6621 100.254 18.0879 100.512 17.5371C100.781 16.9863 101.057 16.4238 101.338 15.8496C101.432 15.6621 101.52 15.4746 101.602 15.2871C101.695 15.0996 101.789 14.9121 101.883 14.7246C101.871 14.6895 101.865 14.6484 101.865 14.6016C101.865 14.5547 101.877 14.502 101.9 14.4434C102.029 14.2441 102.135 14.0684 102.217 13.916C102.299 13.752 102.381 13.5879 102.463 13.4238C102.557 13.2246 102.65 13.0312 102.744 12.8438C102.85 12.6562 102.979 12.4629 103.131 12.2637L103.412 12.1406C103.447 12.1289 103.488 12.1172 103.535 12.1055C103.582 12.082 103.635 12.0703 103.693 12.0703L103.957 12.1055C104.285 11.9531 104.572 11.7422 104.818 11.4727C105.064 11.1914 105.316 10.8574 105.574 10.4707L105.75 10.2246L105.979 10.3652C106.037 10.4004 106.119 10.4355 106.225 10.4707C106.33 10.4941 106.441 10.5234 106.559 10.5586C106.77 10.6055 106.969 10.6582 107.156 10.7168C107.344 10.7754 107.496 10.8633 107.613 10.9805C107.684 11.168 107.725 11.3086 107.736 11.4023C107.748 11.4961 107.766 11.5898 107.789 11.6836C107.824 11.8828 107.854 12.082 107.877 12.2812C107.912 12.4805 107.936 12.7031 107.947 12.9492C108.006 13.1484 108.053 13.3477 108.088 13.5469C108.135 13.7344 108.176 13.9277 108.211 14.127C108.27 14.4082 108.328 14.6836 108.387 14.9531C108.445 15.2109 108.521 15.457 108.615 15.6914C108.709 15.6914 108.768 15.6973 108.791 15.709C108.85 15.6855 108.908 15.668 108.967 15.6562C109.037 15.6445 109.113 15.6328 109.195 15.6211L109.389 15.6035L109.459 15.7793C109.471 15.8379 109.529 15.8965 109.635 15.9551C109.787 15.9668 109.898 16.002 109.969 16.0605C110.039 16.1074 110.104 16.1602 110.162 16.2188C110.209 16.2656 110.256 16.3008 110.303 16.3242L110.566 16.4297L110.426 16.6934C110.309 16.9043 110.139 17.1094 109.916 17.3086C109.705 17.4961 109.465 17.6543 109.195 17.7832C109.207 17.8535 109.213 17.9238 109.213 17.9941C109.225 18.0527 109.242 18.1172 109.266 18.1875C109.301 18.3867 109.33 18.5918 109.354 18.8027C109.377 19.0137 109.377 19.2305 109.354 19.4531L109.318 19.5234ZM104.238 16.4824C104.59 16.459 104.906 16.4355 105.188 16.4121C105.48 16.377 105.803 16.3242 106.154 16.2539C106.072 15.9023 105.984 15.5391 105.891 15.1641C105.797 14.7773 105.697 14.3965 105.592 14.0215L105.486 14.1973C105.252 14.4434 105.023 14.7188 104.801 15.0234C104.59 15.3281 104.408 15.6152 104.256 15.8848C104.186 15.9902 104.115 16.0957 104.045 16.2012C103.975 16.3066 103.91 16.4121 103.852 16.5176C103.922 16.5059 103.986 16.5 104.045 16.5C104.115 16.5 104.18 16.4941 104.238 16.4824ZM115.119 20.8066C114.791 20.9121 114.434 21.0176 114.047 21.123C113.66 21.2285 113.273 21.2812 112.887 21.2812C112.301 21.2812 111.838 21.1348 111.498 20.8418C111.439 20.7129 111.387 20.625 111.34 20.5781C111.305 20.5312 111.27 20.4844 111.234 20.4375C111.211 20.3789 111.193 20.3027 111.182 20.209C111.041 20.0449 110.93 19.8574 110.848 19.6465C110.766 19.4238 110.707 19.2012 110.672 18.9785C110.648 18.7441 110.643 18.5098 110.654 18.2754C110.678 18.041 110.719 17.8184 110.777 17.6074C110.801 17.5605 110.812 17.5137 110.812 17.4668C110.824 17.4199 110.836 17.3672 110.848 17.3086C110.895 17.1211 110.941 16.9395 110.988 16.7637C111.047 16.5879 111.123 16.4355 111.217 16.3066C111.17 16.2012 111.17 16.084 111.217 15.9551C111.264 15.8262 111.316 15.709 111.375 15.6035C111.539 15.1582 111.674 14.7832 111.779 14.4785C111.896 14.1621 112.014 13.8516 112.131 13.5469C112.33 13.0195 112.518 12.498 112.693 11.9824C112.869 11.4668 113.027 10.9102 113.168 10.3125C113.262 10.2539 113.332 10.2129 113.379 10.1895C113.449 10.166 113.508 10.1484 113.555 10.1367C113.766 10.2422 114.012 10.3477 114.293 10.4531C114.574 10.5469 114.809 10.5938 114.996 10.5938C115.09 10.6523 115.148 10.6992 115.172 10.7344C115.195 10.7578 115.219 10.7812 115.242 10.8047C115.371 10.957 115.482 11.1152 115.576 11.2793C115.67 11.4316 115.699 11.6367 115.664 11.8945C115.594 12 115.541 12.0527 115.506 12.0527C115.447 12.2871 115.383 12.4863 115.312 12.6504C115.254 12.8145 115.189 12.9785 115.119 13.1426C115.037 13.3184 114.961 13.4941 114.891 13.6699C114.82 13.8457 114.762 14.0625 114.715 14.3203C114.668 14.3789 114.633 14.4316 114.609 14.4785C114.598 14.5254 114.58 14.5781 114.557 14.6367C114.533 14.6953 114.504 14.7598 114.469 14.8301C114.445 14.8887 114.404 14.9414 114.346 14.9883C114.311 15.293 114.252 15.5391 114.17 15.7266C114.1 15.9141 114.023 16.1016 113.941 16.2891C113.801 16.6289 113.672 16.9688 113.555 17.3086C113.449 17.6484 113.385 18.0352 113.361 18.4688C113.42 18.4453 113.473 18.4336 113.52 18.4336C113.578 18.4336 113.631 18.4336 113.678 18.4336C113.783 18.4336 113.906 18.4512 114.047 18.4863C114.398 18.2988 114.779 18.1875 115.189 18.1523C115.611 18.1172 116.027 18.0938 116.438 18.082C116.602 18.082 116.766 18.082 116.93 18.082C117.094 18.082 117.246 18.0703 117.387 18.0469C117.492 18.1055 117.557 18.1406 117.58 18.1523C117.615 18.1523 117.662 18.1523 117.721 18.1523C117.803 18.1523 117.873 18.1582 117.932 18.1699C118.072 18.2988 118.207 18.3926 118.336 18.4512C118.465 18.5098 118.6 18.5625 118.74 18.6094C118.869 18.6562 118.992 18.709 119.109 18.7676C119.238 18.8145 119.361 18.8848 119.479 18.9785L119.602 19.7344C119.684 19.8398 119.719 19.9102 119.707 19.9453C119.707 20.0391 119.684 20.1094 119.637 20.1562L119.672 20.3496C119.496 20.3848 119.373 20.4258 119.303 20.4727C119.244 20.5195 119.186 20.5723 119.127 20.6309C119.033 20.6426 118.963 20.6484 118.916 20.6484C118.881 20.6484 118.846 20.6484 118.811 20.6484C118.646 20.6484 118.447 20.6777 118.213 20.7363C117.896 20.6309 117.568 20.5781 117.229 20.5781C117.1 20.5781 116.965 20.584 116.824 20.5957C116.684 20.6074 116.543 20.6191 116.402 20.6309C116.262 20.6543 116.115 20.6719 115.963 20.6836C115.822 20.6953 115.676 20.7012 115.523 20.7012L115.119 20.8066ZM128.109 19.752C128.051 19.623 127.992 19.5 127.934 19.3828C127.875 19.2656 127.816 19.1602 127.758 19.0664C127.617 18.7852 127.494 18.5332 127.389 18.3105C127.283 18.0879 127.184 17.8301 127.09 17.5371C127.125 17.3379 127.184 17.0039 127.266 16.5352C127.359 16.0664 127.465 15.5566 127.582 15.0059C127.699 14.4434 127.822 13.875 127.951 13.3008C128.092 12.7266 128.232 12.2344 128.373 11.8242C128.502 11.4609 128.643 11.0742 128.795 10.6641C128.959 10.2539 129.135 9.87891 129.322 9.53906C129.521 9.1875 129.732 8.88867 129.955 8.64258C130.178 8.39648 130.418 8.25 130.676 8.20312C130.746 8.29688 130.822 8.37305 130.904 8.43164C130.986 8.47852 131.062 8.51367 131.133 8.53711C131.332 8.81836 131.525 9.05859 131.713 9.25781C131.9 9.44531 132.123 9.63281 132.381 9.82031C132.311 10.1719 132.205 10.5645 132.064 10.998C131.936 11.4199 131.795 11.8477 131.643 12.2812C131.502 12.7148 131.361 13.1367 131.221 13.5469C131.08 13.9453 130.969 14.291 130.887 14.584C130.816 14.8184 130.746 15.0879 130.676 15.3926C130.617 15.6504 130.553 15.9609 130.482 16.3242C130.424 16.6875 130.365 17.0859 130.307 17.5195C130.471 17.4727 130.652 17.3789 130.852 17.2383C131.062 17.0977 131.256 16.9512 131.432 16.7988C131.643 16.623 131.848 16.4355 132.047 16.2363C132.316 15.9668 132.545 15.7207 132.732 15.498C132.92 15.2754 133.09 15.0469 133.242 14.8125C133.406 14.5664 133.57 14.3027 133.734 14.0215C133.91 13.7285 134.115 13.3828 134.35 12.9844C134.561 12.6445 134.777 12.2812 135 11.8945C135.234 11.5078 135.469 11.1387 135.703 10.7871C135.938 10.4355 136.166 10.1133 136.389 9.82031C136.611 9.51562 136.816 9.28125 137.004 9.11719C137.133 9.24609 137.279 9.38086 137.443 9.52148C137.619 9.66211 137.807 9.76172 138.006 9.82031C138.088 9.94922 138.164 10.0664 138.234 10.1719C138.316 10.2656 138.393 10.3594 138.463 10.4531C138.557 10.582 138.639 10.6992 138.709 10.8047C138.791 10.9102 138.861 11.0273 138.92 11.1562C138.908 11.25 138.885 11.373 138.85 11.5254C138.826 11.6777 138.797 11.8477 138.762 12.0352C138.727 12.2109 138.686 12.3926 138.639 12.5801C138.604 12.7676 138.568 12.9492 138.533 13.125C138.416 13.6523 138.328 14.0508 138.27 14.3203C138.211 14.5898 138.17 14.8008 138.146 14.9531C138.123 15.1055 138.105 15.2344 138.094 15.3398C138.094 15.4453 138.094 15.5918 138.094 15.7793C138.094 15.9199 138.105 16.0605 138.129 16.2012C138.152 16.3301 138.176 16.4648 138.199 16.6055C138.234 16.7344 138.293 16.8574 138.375 16.9746L139.219 16.3242C139.453 16.1484 139.676 15.9023 139.887 15.5859C140.109 15.2578 140.32 14.8887 140.52 14.4785C140.73 14.0566 140.936 13.6055 141.135 13.125C141.334 12.6328 141.533 12.1289 141.732 11.6133C141.873 11.2383 142.014 10.8691 142.154 10.5059C142.307 10.1309 142.459 9.7793 142.611 9.45117C142.764 9.11133 142.91 8.80664 143.051 8.53711C143.203 8.25586 143.35 8.02148 143.49 7.83398C143.807 8.0332 144.076 8.23242 144.299 8.43164C144.533 8.63086 144.732 8.85352 144.896 9.09961C145.072 9.33398 145.207 9.60938 145.301 9.92578C145.406 10.2305 145.482 10.5938 145.529 11.0156C145.271 11.5078 145.031 12.0117 144.809 12.5273C144.586 13.043 144.363 13.5645 144.141 14.0918C143.859 14.7715 143.566 15.4512 143.262 16.1309C142.969 16.7988 142.641 17.4375 142.277 18.0469C141.914 18.6562 141.504 19.2188 141.047 19.7344C140.602 20.2383 140.086 20.666 139.5 21.0176C139.336 20.9824 139.195 20.9648 139.078 20.9648C138.949 20.9648 138.838 20.9824 138.744 21.0176C138.662 21.0527 138.586 21.0996 138.516 21.1582C138.035 20.9355 137.648 20.6074 137.355 20.1738C137.062 19.7285 136.775 19.2363 136.494 18.6973C136.459 18.6152 136.418 18.5391 136.371 18.4688C136.336 18.3867 136.295 18.3047 136.248 18.2227L135.949 17.6777L135.773 17.3438L135.527 17.5723L135.158 17.9062L134.947 18.1172C134.584 18.457 134.215 18.791 133.84 19.1191C133.465 19.4355 133.072 19.7285 132.662 19.998C132.252 20.2559 131.812 20.4668 131.344 20.6309C130.887 20.7949 130.395 20.8828 129.867 20.8945C129.773 20.8477 129.686 20.8066 129.604 20.7715C129.533 20.7363 129.463 20.7012 129.393 20.666C129.123 20.5371 128.9 20.4141 128.725 20.2969C128.549 20.1797 128.344 19.998 128.109 19.752ZM154.881 15.7266C154.869 15.8672 154.881 16.002 154.916 16.1309C154.951 16.2598 154.992 16.3887 155.039 16.5176C155.098 16.6348 155.15 16.7578 155.197 16.8867C155.244 17.0156 155.279 17.1445 155.303 17.2734C155.326 17.4375 155.326 17.6191 155.303 17.8184C155.279 18.0059 155.238 18.1934 155.18 18.3809C155.121 18.5566 155.045 18.7207 154.951 18.873C154.857 19.0137 154.746 19.1191 154.617 19.1895C154.453 19.4004 154.254 19.5645 154.02 19.6816C153.785 19.7988 153.568 19.9395 153.369 20.1035C153.24 20.1855 153.094 20.2441 152.93 20.2793C152.777 20.3145 152.619 20.3496 152.455 20.3848C152.326 20.4551 152.174 20.5312 151.998 20.6133C151.822 20.6836 151.641 20.7539 151.453 20.8242C151.266 20.8828 151.078 20.9297 150.891 20.9648C150.703 20.9883 150.539 20.9941 150.398 20.9824C150.047 21.1113 149.701 21.1934 149.361 21.2285C149.033 21.2754 148.646 21.252 148.201 21.1582C147.779 21.2168 147.387 21.1992 147.023 21.1055C146.672 21.0117 146.355 20.8652 146.074 20.666C145.805 20.4551 145.564 20.209 145.354 19.9277C145.154 19.6348 144.99 19.3301 144.861 19.0137C144.768 18.3457 144.791 17.7422 144.932 17.2031C145.072 16.6523 145.271 16.1484 145.529 15.6914C145.799 15.2227 146.104 14.7949 146.443 14.4082C146.783 14.0098 147.111 13.623 147.428 13.248C147.498 13.2715 147.551 13.2715 147.586 13.248C147.633 13.2129 147.674 13.1719 147.709 13.125C147.744 13.0664 147.779 13.0137 147.814 12.9668C147.861 12.9199 147.914 12.8906 147.973 12.8789C148.055 12.7031 148.172 12.5742 148.324 12.4922C148.488 12.3984 148.617 12.2695 148.711 12.1055C148.816 12.082 148.904 12.0469 148.975 12C149.045 11.9531 149.109 11.9004 149.168 11.8418C149.238 11.7832 149.309 11.7305 149.379 11.6836C149.449 11.625 149.531 11.584 149.625 11.5605V11.3672C149.836 11.2734 149.988 11.168 150.082 11.0508C150.188 10.9219 150.311 10.7695 150.451 10.5938C150.557 10.582 150.639 10.5762 150.697 10.5762C150.768 10.5762 150.867 10.5645 150.996 10.541C151.09 10.377 151.172 10.2539 151.242 10.1719C151.324 10.0898 151.441 10.002 151.594 9.9082C151.734 9.97852 151.887 10.0254 152.051 10.0488C152.227 10.0723 152.379 10.1484 152.508 10.2773C152.52 10.3945 152.555 10.4883 152.613 10.5586C152.672 10.6172 152.736 10.6758 152.807 10.7344C152.877 10.7812 152.941 10.834 153 10.8926C153.07 10.9512 153.117 11.0332 153.141 11.1387C153.188 11.1504 153.217 11.1445 153.229 11.1211C153.252 11.0977 153.287 11.0918 153.334 11.1035C153.369 11.2676 153.41 11.3789 153.457 11.4375C153.504 11.4844 153.551 11.584 153.598 11.7363C153.539 11.8535 153.492 11.9766 153.457 12.1055C153.434 12.2227 153.363 12.3105 153.246 12.3691C153.234 12.4512 153.258 12.498 153.316 12.5098C153.375 12.5098 153.41 12.5391 153.422 12.5977C153.434 12.7031 153.416 12.7793 153.369 12.8262C153.65 13.2832 153.902 13.7695 154.125 14.2852C154.348 14.7891 154.6 15.2695 154.881 15.7266ZM152.684 17.3965C152.73 17.2676 152.789 17.1621 152.859 17.0801C152.941 16.998 152.988 16.875 153 16.7109C152.941 16.6172 152.906 16.5469 152.895 16.5C152.883 16.4414 152.877 16.3535 152.877 16.2363C152.619 15.873 152.396 15.4863 152.209 15.0762C152.021 14.6543 151.811 14.2617 151.576 13.8984C151.553 13.9453 151.512 13.9922 151.453 14.0391C151.395 14.0859 151.33 14.0742 151.26 14.0039C151.236 14.0977 151.195 14.168 151.137 14.2148C151.078 14.25 151.014 14.2676 150.943 14.2676C150.873 14.2559 150.797 14.2383 150.715 14.2148C150.645 14.1797 150.58 14.1387 150.521 14.0918C150.182 14.3613 149.842 14.625 149.502 14.8828C149.162 15.1406 148.857 15.4395 148.588 15.7793C148.541 15.8027 148.512 15.8145 148.5 15.8145C148.488 15.8027 148.453 15.8086 148.395 15.832C148.301 16.0547 148.184 16.2598 148.043 16.4473C147.914 16.623 147.785 16.8047 147.656 16.9922C147.527 17.1797 147.416 17.3789 147.322 17.5898C147.229 17.8008 147.176 18.0469 147.164 18.3281C147.363 18.4922 147.598 18.5918 147.867 18.627C148.137 18.6621 148.412 18.668 148.693 18.6445C148.986 18.6211 149.268 18.5859 149.537 18.5391C149.818 18.4805 150.076 18.4512 150.311 18.4512C150.803 18.334 151.225 18.1816 151.576 17.9941C151.928 17.7949 152.297 17.5957 152.684 17.3965ZM158.783 19.1719C158.654 19.6406 158.537 19.998 158.432 20.2441C158.338 20.4785 158.191 20.7246 157.992 20.9824C157.84 20.959 157.734 20.9766 157.676 21.0352C157.617 21.0938 157.553 21.1465 157.482 21.1934C157.377 21.2168 157.301 21.2168 157.254 21.1934C157.207 21.1699 157.166 21.1406 157.131 21.1055C157.096 21.082 157.049 21.0527 156.99 21.0176C156.943 20.9941 156.867 20.9824 156.762 20.9824C156.738 20.8887 156.709 20.8008 156.674 20.7188C156.65 20.6367 156.574 20.6074 156.445 20.6309C156.469 20.5371 156.475 20.4609 156.463 20.4023C156.451 20.332 156.434 20.2734 156.41 20.2266C156.398 20.168 156.387 20.1152 156.375 20.0684C156.363 20.0098 156.369 19.9395 156.393 19.8574C156.334 19.8574 156.287 19.8164 156.252 19.7344C156.217 19.6523 156.176 19.5703 156.129 19.4883C156.164 19.2773 156.199 19.0781 156.234 18.8906C156.27 18.7031 156.311 18.5273 156.357 18.3633C156.416 18.1992 156.463 18.0352 156.498 17.8711C156.533 17.707 156.516 17.5371 156.445 17.3613C156.492 17.3965 156.527 17.3906 156.551 17.3438C156.574 17.2852 156.592 17.2148 156.604 17.1328C156.615 17.0391 156.621 16.9512 156.621 16.8691C156.621 16.7754 156.615 16.6992 156.604 16.6406C156.721 16.3359 156.814 16.0254 156.885 15.709C156.967 15.3809 157.037 15.0586 157.096 14.7422C157.166 14.4258 157.236 14.1152 157.307 13.8105C157.377 13.5059 157.471 13.2246 157.588 12.9668C157.717 12.9434 157.857 12.9609 158.01 13.0195C158.174 13.0664 158.273 13.1309 158.309 13.2129C158.613 12.9785 158.883 12.6973 159.117 12.3691C159.352 12.0293 159.592 11.7012 159.838 11.3848C160.084 11.0684 160.354 10.7871 160.646 10.541C160.951 10.2949 161.332 10.1484 161.789 10.1016C162.023 10.2773 162.281 10.459 162.562 10.6465C162.855 10.8223 163.096 11.0566 163.283 11.3496C163.377 11.3965 163.453 11.4492 163.512 11.5078C163.582 11.5547 163.664 11.6074 163.758 11.666V11.877C163.898 12.0059 164.01 12.1582 164.092 12.334C164.186 12.498 164.268 12.6797 164.338 12.8789C164.408 13.0664 164.479 13.2598 164.549 13.459C164.619 13.6465 164.701 13.8281 164.795 14.0039C164.771 14.0625 164.76 14.1152 164.76 14.1621C164.76 14.1973 164.766 14.2383 164.777 14.2852C164.801 14.332 164.818 14.3789 164.83 14.4258C164.842 14.4727 164.842 14.5371 164.83 14.6191C164.795 15.1348 164.625 15.5508 164.32 15.8672C164.027 16.1836 163.67 16.4473 163.248 16.6582C162.826 16.8574 162.375 17.0273 161.895 17.168C161.414 17.3086 160.98 17.4609 160.594 17.625C160.594 17.6719 160.611 17.6953 160.646 17.6953C160.693 17.6953 160.711 17.7246 160.699 17.7832C160.98 17.959 161.203 18.0996 161.367 18.2051C161.531 18.3105 161.684 18.3984 161.824 18.4688C161.977 18.5391 162.135 18.6035 162.299 18.6621C162.475 18.709 162.715 18.7676 163.02 18.8379C163.324 18.9082 163.559 18.9668 163.723 19.0137C163.898 19.0488 164.057 19.084 164.197 19.1191C164.338 19.1426 164.479 19.166 164.619 19.1895C164.771 19.2012 164.982 19.2188 165.252 19.2422C165.357 19.3477 165.445 19.4766 165.516 19.6289C165.598 19.7695 165.65 19.916 165.674 20.0684C165.697 20.209 165.703 20.3496 165.691 20.4902C165.68 20.6191 165.639 20.7246 165.568 20.8066C165.58 20.8418 165.604 20.8594 165.639 20.8594C165.686 20.8477 165.732 20.8477 165.779 20.8594C165.709 20.9062 165.65 20.9648 165.604 21.0352C165.557 21.1055 165.51 21.1758 165.463 21.2461C165.416 21.3164 165.363 21.375 165.305 21.4219C165.246 21.4805 165.164 21.5156 165.059 21.5273C164.695 21.668 164.238 21.6738 163.688 21.5449C163.137 21.4277 162.439 21.2051 161.596 20.877C161.174 20.7129 160.828 20.5723 160.559 20.4551C160.301 20.3262 160.072 20.2031 159.873 20.0859C159.686 19.957 159.51 19.8223 159.346 19.6816C159.193 19.541 159.006 19.3711 158.783 19.1719ZM161.297 13.1426C161.168 13.3301 161.021 13.5 160.857 13.6523C160.705 13.8047 160.553 13.9629 160.4 14.127C160.26 14.2793 160.131 14.4551 160.014 14.6543C159.896 14.8418 159.814 15.0645 159.768 15.3223C160.178 15.2754 160.605 15.1641 161.051 14.9883C161.496 14.8008 161.918 14.625 162.316 14.4609C162.27 14.0977 162.141 13.8047 161.93 13.582C161.73 13.3594 161.52 13.2129 161.297 13.1426ZM176.291 20.3672C175.729 20.3906 175.23 20.3789 174.797 20.332C174.375 20.2852 173.959 20.1738 173.549 19.998C173.525 19.9863 173.502 19.957 173.479 19.9102C173.455 19.8633 173.432 19.8281 173.408 19.8047C173.338 19.7695 173.25 19.7578 173.145 19.7695C173.051 19.7695 172.969 19.7578 172.898 19.7344C172.805 19.6875 172.658 19.5996 172.459 19.4707C172.26 19.3301 172.078 19.2012 171.914 19.084C171.703 18.9199 171.504 18.7559 171.316 18.5918C171.129 18.4277 170.965 18.252 170.824 18.0645C170.789 18.0176 170.742 17.9941 170.684 17.9941C170.625 17.9824 170.572 17.9648 170.525 17.9414C170.186 18.1523 169.898 18.416 169.664 18.7324C169.43 19.0488 169.207 19.3711 168.996 19.6992C168.785 20.0273 168.562 20.3379 168.328 20.6309C168.094 20.9238 167.795 21.1465 167.432 21.2988C167.326 21.2988 167.232 21.2812 167.15 21.2461C167.068 21.2109 166.992 21.1641 166.922 21.1055C166.852 21.0586 166.781 21.0117 166.711 20.9648C166.641 20.918 166.564 20.8828 166.482 20.8594C166.482 20.7188 166.453 20.5898 166.395 20.4727C166.348 20.3555 166.295 20.2441 166.236 20.1387C166.189 20.0332 166.154 19.9336 166.131 19.8398C166.107 19.7344 166.131 19.6348 166.201 19.541C166.131 19.4707 166.025 19.3945 165.885 19.3125C165.955 19.2422 165.984 19.1777 165.973 19.1191C165.973 19.0605 165.961 19.002 165.938 18.9434C165.914 18.8848 165.891 18.8203 165.867 18.75C165.855 18.6797 165.873 18.6094 165.92 18.5391C165.979 18.5391 166.049 18.5273 166.131 18.5039C166.061 18.4102 166.025 18.3574 166.025 18.3457C166.037 18.3223 166.025 18.293 165.99 18.2578C165.967 18.1875 165.979 18.1465 166.025 18.1348C166.072 18.1113 166.119 18.0879 166.166 18.0645C166.213 17.4902 166.312 16.957 166.465 16.4648C166.617 15.9727 166.787 15.498 166.975 15.041C167.162 14.584 167.344 14.1211 167.52 13.6523C167.707 13.1836 167.859 12.6797 167.977 12.1406C168.105 12.0117 168.205 11.8594 168.275 11.6836C168.357 11.5078 168.439 11.332 168.521 11.1562C168.615 10.9805 168.715 10.8105 168.82 10.6465C168.938 10.4707 169.096 10.3301 169.295 10.2246C169.459 10.2363 169.605 10.2832 169.734 10.3652C169.863 10.4355 170.021 10.4648 170.209 10.4531C170.244 10.5117 170.273 10.5703 170.297 10.6289C170.332 10.6875 170.373 10.7461 170.42 10.8047L170.684 10.752C170.812 10.8574 170.924 10.9922 171.018 11.1562C171.123 11.3086 171.193 11.4727 171.229 11.6484C171.264 11.8242 171.258 11.9941 171.211 12.1582C171.164 12.3105 171.053 12.4336 170.877 12.5273C170.889 12.5859 170.889 12.6328 170.877 12.668C170.877 12.6914 170.871 12.7148 170.859 12.7383C170.848 12.7617 170.842 12.7852 170.842 12.8086C170.842 12.832 170.859 12.8672 170.895 12.9141C170.66 13.0898 170.484 13.3359 170.367 13.6523C170.25 13.9688 170.186 14.25 170.174 14.4961C170.314 14.3555 170.467 14.2207 170.631 14.0918C170.807 13.9512 170.982 13.8164 171.158 13.6875C171.346 13.5586 171.521 13.4355 171.686 13.3184C171.861 13.2012 172.02 13.084 172.16 12.9668C172.547 12.6152 172.916 12.334 173.268 12.123C173.631 11.9004 174.012 11.6543 174.41 11.3848C174.504 11.3613 174.574 11.3613 174.621 11.3848C174.68 11.3965 174.738 11.4141 174.797 11.4375C174.797 11.3672 174.773 11.3262 174.727 11.3145C174.691 11.3027 174.68 11.2559 174.691 11.1738C174.867 11.127 175.02 11.0742 175.148 11.0156C175.277 10.9453 175.418 10.8809 175.57 10.8223C175.676 10.9277 175.775 11.0391 175.869 11.1562C175.963 11.2617 176.092 11.3262 176.256 11.3496C176.314 11.4785 176.385 11.5781 176.467 11.6484C176.549 11.707 176.631 11.7656 176.713 11.8242C176.795 11.8828 176.865 11.9531 176.924 12.0352C176.994 12.1172 177.035 12.2461 177.047 12.4219C177 12.5039 176.947 12.5918 176.889 12.6855C176.842 12.7793 176.795 12.8906 176.748 13.0195C176.514 13.2305 176.273 13.418 176.027 13.582C175.793 13.7461 175.553 13.9043 175.307 14.0566C175.061 14.209 174.809 14.3613 174.551 14.5137C174.293 14.666 174.029 14.8477 173.76 15.0586C173.701 15.1406 173.625 15.2168 173.531 15.2871C173.449 15.3457 173.361 15.4102 173.268 15.4805C173.174 15.5391 173.086 15.6035 173.004 15.6738C172.922 15.7441 172.857 15.8262 172.811 15.9199C172.775 15.9316 172.74 15.9375 172.705 15.9375C172.67 15.9375 172.635 15.9434 172.6 15.9551C172.564 16.0371 172.506 16.1016 172.424 16.1484C172.354 16.1953 172.307 16.2598 172.283 16.3418C172.459 16.7168 172.688 17.0039 172.969 17.2031C173.25 17.4023 173.566 17.5488 173.918 17.6426C174.27 17.7246 174.65 17.7715 175.061 17.7832C175.471 17.7832 175.898 17.7832 176.344 17.7832C176.391 17.7715 176.408 17.748 176.396 17.7129C176.396 17.666 176.426 17.6484 176.484 17.6602C176.766 17.7539 176.982 17.8887 177.135 18.0645C177.287 18.2285 177.469 18.3926 177.68 18.5566C177.656 19.002 177.521 19.3711 177.275 19.6641C177.029 19.957 176.701 20.1914 176.291 20.3672ZM177.592 13.0898C177.674 12.8438 177.803 12.6328 177.979 12.457C178.166 12.2812 178.365 12.1348 178.576 12.0176C178.799 11.8887 179.027 11.7832 179.262 11.7012C179.496 11.6191 179.719 11.5488 179.93 11.4902C180.398 11.291 180.896 11.1035 181.424 10.9277C181.963 10.7402 182.508 10.5762 183.059 10.4355C183.621 10.2949 184.195 10.207 184.781 10.1719C185.367 10.125 185.982 10.1953 186.627 10.3828C186.662 10.5 186.715 10.6113 186.785 10.7168C186.855 10.8223 186.926 10.9277 186.996 11.0332C187.078 11.1387 187.148 11.2441 187.207 11.3496C187.266 11.4434 187.301 11.543 187.312 11.6484C187.43 11.7539 187.523 11.8711 187.594 12C187.664 12.1172 187.676 12.2754 187.629 12.4746C187.512 12.5684 187.395 12.6562 187.277 12.7383C187.172 12.8086 187.055 12.873 186.926 12.9316C186.492 12.8262 186.053 12.791 185.607 12.8262C185.162 12.8613 184.764 12.8906 184.412 12.9141C184.307 12.8086 184.178 12.7559 184.025 12.7559C183.885 12.7559 183.732 12.7793 183.568 12.8262C183.416 12.873 183.258 12.9199 183.094 12.9668C182.941 13.0137 182.795 13.0254 182.654 13.002C182.537 13.0957 182.391 13.1602 182.215 13.1953C182.051 13.2188 181.869 13.2422 181.67 13.2656C181.658 13.3242 181.67 13.3652 181.705 13.3887C181.74 13.4004 181.746 13.4355 181.723 13.4941C181.793 13.5762 181.881 13.6348 181.986 13.6699C182.104 13.7051 182.221 13.7402 182.338 13.7754C182.467 13.8105 182.578 13.8574 182.672 13.916C182.766 13.9629 182.83 14.0449 182.865 14.1621C183.041 14.1621 183.193 14.2031 183.322 14.2852C183.451 14.3672 183.557 14.4668 183.639 14.584C183.721 14.7012 183.779 14.8301 183.814 14.9707C183.861 15.0996 183.885 15.2168 183.885 15.3223C183.92 15.416 183.961 15.457 184.008 15.4453C184.055 15.4336 184.107 15.457 184.166 15.5156C184.201 15.668 184.289 15.8262 184.43 15.9902C184.57 16.1426 184.682 16.3125 184.764 16.5C184.787 16.793 184.805 17.0566 184.816 17.291C184.828 17.5137 184.787 17.7422 184.693 17.9766C184.518 18.4102 184.271 18.7969 183.955 19.1367C183.65 19.4766 183.299 19.7812 182.9 20.0508C182.514 20.3086 182.098 20.5312 181.652 20.7188C181.207 20.9062 180.773 21.0645 180.352 21.1934C180.305 21.1816 180.258 21.1816 180.211 21.1934C180.164 21.2051 180.152 21.1758 180.176 21.1055C180.082 21.1875 179.977 21.2402 179.859 21.2637C179.754 21.2871 179.637 21.293 179.508 21.2812C179.379 21.2812 179.244 21.2754 179.104 21.2637C178.975 21.252 178.852 21.2578 178.734 21.2812C178.652 21.1992 178.576 21.1172 178.506 21.0352C178.447 20.9648 178.4 20.8711 178.365 20.7539C178.307 20.7539 178.277 20.7246 178.277 20.666C178.289 20.6074 178.271 20.5781 178.225 20.5781C178.295 20.4609 178.324 20.3965 178.312 20.3848C178.312 20.3613 178.295 20.3438 178.26 20.332C178.236 20.3203 178.213 20.3086 178.189 20.2969C178.166 20.2734 178.16 20.2441 178.172 20.209C178.219 20.1152 178.236 20.0098 178.225 19.8926C178.213 19.7637 178.201 19.6348 178.189 19.5059C178.178 19.377 178.184 19.2539 178.207 19.1367C178.242 19.0195 178.33 18.9258 178.471 18.8555C178.869 18.9023 179.244 18.8906 179.596 18.8203C179.959 18.7383 180.299 18.627 180.615 18.4863C180.932 18.3457 181.23 18.1934 181.512 18.0293C181.805 17.8652 182.092 17.7188 182.373 17.5898C182.408 17.4844 182.455 17.3965 182.514 17.3262C182.584 17.2559 182.654 17.1914 182.725 17.1328C182.795 17.0742 182.859 17.0098 182.918 16.9395C182.977 16.8691 183.018 16.7812 183.041 16.6758C183.053 16.5938 183.029 16.5469 182.971 16.5352C182.924 16.5117 182.9 16.4648 182.9 16.3945L182.707 16.3418C182.484 16.2129 182.232 16.1074 181.951 16.0254C181.67 15.9316 181.43 15.832 181.23 15.7266C181.102 15.7969 180.979 15.8145 180.861 15.7793C180.756 15.7441 180.615 15.709 180.439 15.6738C180.041 15.6504 179.654 15.6094 179.279 15.5508C178.916 15.4922 178.564 15.3867 178.225 15.2344C178.201 15.1758 178.172 15.123 178.137 15.0762C178.102 15.0293 178.037 15.0176 177.943 15.041C177.873 14.9473 177.803 14.8594 177.732 14.7773C177.662 14.6836 177.598 14.584 177.539 14.4785C177.562 14.3379 177.58 14.2207 177.592 14.127C177.604 14.0215 177.568 13.9219 177.486 13.8281C177.533 13.6758 177.568 13.5527 177.592 13.459C177.615 13.3652 177.615 13.2422 177.592 13.0898Z" fill="black"/>
</svg>
